<svg width="70" height="70" viewBox="0 0 70 70" fill="none" xmlns="http://www.w3.org/2000/svg">
<circle cx="35" cy="35" r="35" fill="#F6F5F3"/>
<path d="M23.3263 34.2617C23.5951 34.9077 24.1527 35.3653 25.0527 35.6637C25.9531 35.9625 26.9587 36.3117 27.6455 37.0249C28.4687 37.8793 28.7091 38.7545 29.0047 39.6177L29.0111 39.6365C29.2023 40.2297 29.6003 41.0077 30.4067 41.3413C31.0539 41.6093 31.7783 41.5381 32.5983 41.1233C33.4195 40.7085 34.3687 40.2413 35.4111 40.2413C36.4519 40.2413 37.4307 40.7045 38.1807 41.0997C38.8167 41.4341 39.6135 41.6749 40.4223 41.3413C41.0683 41.0741 41.5199 40.5145 41.8159 39.6365C42.0027 39.0841 42.3259 37.8973 43.1815 37.0257C43.9559 36.2357 45.0223 35.9233 45.7971 35.6561C46.5723 35.3881 47.1995 34.9877 47.5019 34.2609C47.7707 33.6145 47.6823 32.8517 47.2863 32.0665C47.1107 31.7189 46.4019 30.4665 46.4019 29.2513C46.4019 28.1293 46.8755 27.2753 47.2847 26.4333C47.5635 25.8581 47.8363 25.0485 47.5019 24.2405C47.2339 23.5945 46.6755 23.1373 45.7747 22.8385C44.8755 22.5401 43.8699 22.1905 43.1827 21.4773C42.3599 20.6225 42.1187 19.7477 41.8235 18.8841L41.8171 18.8649C41.6255 18.2721 41.2287 17.4949 40.4227 17.1601C39.7751 16.8925 39.0499 16.9637 38.2299 17.3785C37.4087 17.7937 36.4595 18.2601 35.4183 18.2601C34.3771 18.2601 33.3983 17.7973 32.6491 17.4021C32.0131 17.0669 31.2159 16.8265 30.4079 17.1605C29.7615 17.4277 29.3095 17.9877 29.0135 18.8649C28.8267 19.4173 28.5027 20.6041 27.6483 21.4765C26.8735 22.2661 25.8075 22.5785 25.0319 22.8453C24.2571 23.1129 23.6299 23.5137 23.3271 24.2409C23.0591 24.8877 23.1575 25.7249 23.5459 26.4329C23.7547 26.8145 24.4543 28.1301 24.4275 29.2505H24.4251L24.4271 29.2509C24.4099 30.3989 23.9543 31.2265 23.5455 32.0685C23.2639 32.6441 22.9931 33.4541 23.3263 34.2617Z" fill="#FA3640"/>
<path d="M44.7377 37.4338C44.4957 37.5654 44.2721 37.7206 44.0845 37.911C43.5213 38.4862 43.0345 39.9842 43.0141 40.0414C42.5977 41.2734 41.8885 42.1038 40.9041 42.5102C40.4933 42.681 40.0581 42.7666 39.6105 42.7666C38.9605 42.7666 38.2809 42.5822 37.5909 42.2198C37.2049 42.0158 36.7801 41.8114 36.3493 41.6746L35.2549 44.0966L39.1221 52.6618L43.2689 48.013L49.4977 47.9754L44.7377 37.4338Z" fill="#FA3640"/>
<path d="M35.4114 41.5061C34.6454 41.5061 33.8278 41.9201 33.1694 42.2521C32.497 42.5925 31.8378 42.7649 31.2094 42.7649C30.7654 42.7649 30.333 42.6785 29.9222 42.5093C28.931 42.0981 28.1994 41.2385 27.8094 40.0289L27.8058 40.0185C27.7794 39.9413 27.2854 38.4741 26.735 37.9029C26.3118 37.4641 25.6082 37.1881 24.9706 36.9701L19.9998 47.9741L26.229 48.0121L30.3754 52.6609L35.413 41.5061H35.4114Z" fill="#FA3640"/>
</svg>
