<svg width="70" height="70" viewBox="0 0 70 70" fill="none" xmlns="http://www.w3.org/2000/svg">
<circle cx="35" cy="35" r="35" fill="#F6F5F3"/>
<path d="M54.8642 32.941C54.095 31.3226 53.311 29.7082 52.5418 28.0906C52.143 27.2418 51.7574 26.3862 51.373 25.5342C51.1286 24.9842 50.7006 24.847 50.2146 25.1782C49.2258 25.8542 46.2462 27.8942 44.5594 27.9126C43.6562 27.9226 42.7798 27.8014 41.9238 27.5674C41.363 27.417 40.813 27.2258 40.2662 27.0106C39.4246 26.6762 38.5974 26.3238 37.8278 26.295C37.2498 26.2914 36.8826 26.3342 36.5518 26.6186L36.4798 26.6834L35.793 27.3126C35.7894 27.3126 35.7894 27.3126 35.7894 27.3126L33.1538 29.7286C33.1034 29.7754 33.0566 29.8258 33.0102 29.8762C32.9522 29.919 32.895 29.9622 32.8446 30.013L30.2094 32.4254C30.1626 32.4682 30.1194 32.5122 30.0834 32.5546C30.0546 32.5798 30.0294 32.6126 30.0046 32.6442C29.929 32.7418 29.871 32.8606 29.8462 32.9714C29.6882 33.7702 30.5294 34.9062 31.335 35.0534C32.3738 35.241 33.337 35.0502 34.1786 34.4346C34.6958 34.0574 35.2638 33.629 35.8398 33.1946C35.9982 33.0718 36.1566 32.953 36.3146 32.8346C36.3254 32.8242 36.3366 32.817 36.347 32.8098C36.4978 32.6906 36.649 32.5758 36.8006 32.4614C36.8006 32.4614 36.8006 32.4574 36.8038 32.4574C37.253 32.173 37.7742 32.0254 38.317 32.0254C38.5758 32.0254 38.8278 32.0582 39.0686 32.1222C39.4574 32.2274 39.8166 32.4142 40.133 32.669C40.1438 32.6726 40.151 32.683 40.1618 32.6906C40.2118 32.7342 40.2662 32.7814 40.3162 32.8274C40.3302 32.8418 40.341 32.8526 40.3558 32.867C40.4782 32.9678 40.597 33.079 40.7154 33.1946C41.057 33.5182 41.3802 33.8558 41.6974 34.2082L42.8798 35.395C42.9338 35.4454 42.9774 35.4994 43.0242 35.553C43.0774 35.5998 43.1274 35.643 43.1778 35.6942L45.7054 38.2178C45.7054 38.2218 45.7054 38.2218 45.7086 38.2218L46.8062 39.3186C47.1326 39.4906 47.4678 39.4362 47.8202 39.1454C48.3598 38.6962 49.1894 38.041 49.7394 37.6062C50.5566 36.959 53.7666 34.6666 54.5942 34.0378C54.9794 33.7426 55.0802 33.3938 54.8642 32.941Z" fill="#FA3640"/>
<path d="M26.2193 36.9407C25.6565 36.3779 24.7433 36.3779 24.1801 36.9407L21.6533 39.4675C21.0897 40.0311 21.0897 40.9443 21.6525 41.5067C22.2165 42.0707 23.1297 42.0707 23.6921 41.5079L26.2193 38.9799C26.7825 38.4171 26.7825 37.5039 26.2193 36.9407Z" fill="#FA3640"/>
<path d="M29.2237 39.2182C28.6601 38.655 27.7473 38.655 27.1837 39.2182L24.6565 41.7454C24.0937 42.3082 24.0937 43.221 24.6565 43.7846C25.2205 44.3478 26.1333 44.3478 26.6961 43.785L29.2233 41.2578C29.7865 40.6946 29.7865 39.781 29.2237 39.2182Z" fill="#FA3640"/>
<path d="M32.3696 41.0793C31.8068 40.5165 30.8936 40.5165 30.3304 41.0793L27.8036 43.6073C27.24 44.1697 27.24 45.0833 27.8032 45.6461C28.3668 46.2097 29.2796 46.2097 29.8428 45.6465L32.3696 43.1197C32.9324 42.5557 32.9324 41.6433 32.3696 41.0793Z" fill="#FA3640"/>
<path d="M35.6093 45.1147C35.9137 44.6839 35.9509 44.1263 35.7217 43.6623C35.6561 43.5215 35.5621 43.3903 35.4453 43.2731C35.3277 43.1559 35.1973 43.0623 35.0561 42.9963C34.6201 42.7811 34.0949 42.8047 33.6781 43.0623C33.5793 43.1187 33.4905 43.1887 33.4061 43.2731L30.8801 45.8039C30.3177 46.3663 30.3177 47.2807 30.8801 47.8431C31.4425 48.4055 32.3561 48.4055 32.9189 47.8431L35.4453 45.3167C35.5065 45.2567 35.5621 45.1855 35.6093 45.1147Z" fill="#FA3640"/>
<path d="M42.9629 36.7485C42.9349 36.7161 42.9021 36.6829 42.8689 36.6553L42.3393 36.1245L42.2461 36.0321L41.4265 35.2069L40.9521 34.7381L40.2541 34.0349L40.2121 33.9973L40.0057 33.7909L39.7197 33.5049C39.5973 33.3789 39.4617 33.2753 39.3165 33.1961C39.1429 33.0877 38.9469 33.0125 38.7441 32.9753C38.6081 32.9381 38.4637 32.9237 38.3181 32.9237C37.9621 32.9237 37.6197 33.0169 37.3197 33.1961C37.2497 33.2341 37.1833 33.2753 37.1225 33.3269C37.0481 33.3789 36.9825 33.4393 36.9165 33.5049C36.9069 33.5137 36.8929 33.5237 36.8833 33.5381C36.7057 33.6929 36.5181 33.8473 36.3357 33.9969C36.1529 34.1421 35.9697 34.2833 35.7825 34.4233C35.6745 34.5029 35.5617 34.5873 35.4501 34.6625V34.6669C34.9293 35.0329 34.3761 35.3661 33.8041 35.6513C31.9345 36.5601 30.0501 36.1433 28.9581 34.2265C28.9157 34.1517 28.8781 34.0769 28.8501 33.9969C28.8125 33.8933 28.7841 33.7905 28.7657 33.6829C28.6669 33.0873 28.8737 32.4365 29.3093 32.0237C30.5049 30.8989 31.7005 29.7689 32.8909 28.6401C33.3353 28.2229 33.7857 27.8009 34.2405 27.3649C34.3533 27.2569 34.4705 27.1493 34.5873 27.0369C34.2453 26.7509 33.8609 26.6857 33.4769 26.6669C33.4341 26.6617 33.3969 26.6577 33.3545 26.6577C31.8873 26.5961 30.4725 26.9105 29.0661 27.2669C29.0053 27.2809 28.9493 27.2997 28.8881 27.3137C28.8549 27.3233 28.8221 27.3325 28.7897 27.3417C28.6065 27.4073 28.4285 27.4637 28.2461 27.5101C28.1801 27.5289 28.1193 27.5477 28.0537 27.5665C27.6645 27.6881 27.2709 27.7965 26.8721 27.8521C26.2913 27.9317 25.7521 27.9413 25.4149 27.9133C24.7493 27.8617 23.8821 27.5801 23.0149 27.1541C21.6881 26.4977 20.3621 25.5881 19.7617 25.1761C19.5273 25.0213 19.3121 24.9697 19.1201 25.0169C18.9089 25.0685 18.7309 25.2465 18.5997 25.5329C18.2153 26.3853 17.8313 27.2433 17.4325 28.0917C16.6641 29.7089 15.8813 31.3209 15.1121 32.9381C14.8965 33.3925 14.9953 33.7441 15.3797 34.0345C16.2089 34.6669 19.4197 36.9593 20.2353 37.6061C20.3573 37.7049 20.4933 37.8125 20.6381 37.9249C20.6565 37.9389 20.6753 37.9533 20.6945 37.9669C20.9573 38.1589 21.1865 38.3281 21.3745 38.4729L23.5445 36.3037C23.9849 35.8621 24.5709 35.6181 25.1989 35.6181C25.6629 35.6181 26.1033 35.7553 26.4833 36.0033C26.6141 36.0873 26.7409 36.1913 26.8533 36.3037C26.9045 36.3549 26.9565 36.4061 26.9985 36.4621C27.0313 36.5001 27.0593 36.5373 27.0877 36.5741C27.1157 36.6169 27.1485 36.6597 27.1765 36.7017C27.2097 36.7529 27.2373 36.8089 27.2657 36.8561C27.2705 36.8697 27.2845 36.8837 27.2893 36.9025C27.3081 36.9445 27.3317 36.9869 27.3461 37.0249C27.3645 37.0617 27.3785 37.0993 27.3925 37.1369C27.4021 37.1749 27.4157 37.2077 27.4257 37.2409C27.4489 37.3009 27.4633 37.3581 27.4725 37.4177C27.4865 37.4697 27.4957 37.5165 27.5053 37.5681C27.5197 37.6341 27.5241 37.6997 27.5289 37.7649C27.5385 37.8401 27.5433 37.9197 27.5385 37.9945C27.5477 37.9897 27.5617 37.9853 27.5665 37.9853C27.6273 37.9665 27.6837 37.9529 27.7445 37.9437C27.7965 37.9345 27.8529 37.9197 27.9089 37.9197C27.9461 37.9109 27.9837 37.9061 28.0261 37.9061C28.0869 37.9009 28.1433 37.8965 28.2041 37.8965C28.2745 37.8965 28.3493 37.9013 28.4149 37.9061C28.4333 37.9061 28.4525 37.9109 28.4713 37.9109C28.6069 37.9293 28.7433 37.9529 28.8741 37.9949C29.0569 38.0457 29.2353 38.1257 29.4037 38.2293C29.4085 38.2293 29.4133 38.2293 29.4181 38.2385C29.4601 38.2625 29.4981 38.2901 29.5353 38.3137C29.5729 38.3377 29.6105 38.3657 29.6477 38.3977C29.6805 38.4217 29.7089 38.4449 29.7365 38.4729C29.7781 38.5061 29.8205 38.5437 29.8581 38.5813C29.9101 38.6329 29.9525 38.6849 29.9997 38.7361C30.0185 38.7597 30.0365 38.7829 30.0553 38.8113C30.0977 38.8581 30.1257 38.9041 30.1585 38.9509C30.1965 39.0077 30.2337 39.0633 30.2617 39.1257C30.3365 39.2609 30.3977 39.4013 30.4397 39.5517C30.4585 39.6117 30.4773 39.6689 30.4869 39.7293C30.5005 39.7909 30.5149 39.8521 30.5193 39.9117C30.7817 39.8097 31.0625 39.7577 31.3489 39.7577C31.9773 39.7577 32.5633 40.0005 33.0033 40.4417C33.2801 40.7189 33.4721 41.0469 33.5797 41.3985C33.6317 41.5569 33.6641 41.7169 33.6785 41.8813C33.6829 41.9465 33.6877 42.0121 33.6877 42.0729C33.7861 42.0405 33.8849 42.0125 33.9877 41.9937C34.0485 41.9797 34.1089 41.9753 34.1705 41.9657H34.2177C34.2877 41.9561 34.3581 41.9517 34.4281 41.9517C34.4753 41.9517 34.5217 41.9517 34.5693 41.9561C35.1413 41.9893 35.6705 42.2285 36.0829 42.6417C36.5377 43.0957 36.7673 43.6957 36.7673 44.2957C36.7673 44.3701 36.7629 44.4409 36.7533 44.5113C36.7585 44.5161 36.7585 44.5201 36.7533 44.5249C36.7485 44.5773 36.7445 44.6289 36.7345 44.6749C36.7345 44.6841 36.7297 44.6889 36.7297 44.6985C36.7209 44.7925 36.6973 44.8765 36.6689 44.9605C36.6545 45.0173 36.6361 45.0729 36.6125 45.1297C36.6125 45.1297 36.6125 45.1349 36.6081 45.1437C36.5985 45.1673 36.5893 45.1953 36.5749 45.2237C36.5613 45.2569 36.5425 45.2945 36.5281 45.3269C36.5141 45.3501 36.4997 45.3785 36.4865 45.4065C36.4301 45.5141 36.3645 45.6125 36.2897 45.7113C36.2805 45.7253 36.2657 45.7437 36.2521 45.7585C36.2333 45.7813 36.2141 45.8045 36.1949 45.8229C36.1629 45.8701 36.1205 45.9129 36.0829 45.9497L34.0161 48.0165C34.3021 48.1757 34.6301 48.2653 34.9677 48.2653C35.4269 48.2653 35.8673 48.1105 36.2141 47.8197C36.2233 47.8145 36.2285 47.8101 36.2377 47.8009C36.2801 47.7681 36.3225 47.7257 36.3645 47.6837C36.5661 47.4821 36.7157 47.2481 36.8141 46.9993C36.8937 46.7889 36.9361 46.5633 36.9405 46.3437C37.2357 46.5117 37.5685 46.6009 37.9109 46.6009C38.4409 46.6009 38.9377 46.3953 39.3121 46.0201C39.7809 45.5513 39.9641 44.9001 39.8561 44.2861C40.2125 44.5913 40.6625 44.7549 41.1357 44.7549C41.6649 44.7549 42.1569 44.5485 42.5321 44.1733C43.0245 43.6861 43.2025 43.0013 43.0709 42.3693C43.3761 42.5561 43.7229 42.6601 44.0881 42.6601C44.6225 42.6601 45.1193 42.4529 45.4901 42.0733C46.2633 41.3053 46.2633 40.0489 45.4901 39.2761L42.9629 36.7485Z" fill="#FA3640"/>
</svg>
