<svg width="70" height="70" viewBox="0 0 70 70" fill="none" xmlns="http://www.w3.org/2000/svg">
<circle cx="35" cy="35" r="35" fill="#F6F5F3"/>
<path d="M30.441 57.1814C30.191 57.1791 29.9751 57.0121 29.916 56.7706L27.4024 46.9166C27.016 45.418 25.8501 44.2399 24.3478 43.8291L14.4045 41.0981C14.1659 41.0327 14 40.8183 14 40.5723C14 40.3263 14.1659 40.1119 14.4045 40.0487L24.3251 37.557H24.3274C25.8411 37.1756 27.0342 36.0177 27.4501 34.5214L30.2002 24.6472C30.2638 24.4102 30.4797 24.2477 30.7274 24.25C30.9752 24.25 31.1911 24.4192 31.2479 24.6585L33.757 34.5102C34.1411 36.0156 35.3093 37.1982 36.8138 37.6112L46.7547 40.3308V40.3331C46.9934 40.3963 47.1593 40.6107 47.1593 40.8567C47.1593 41.1027 46.9934 41.3171 46.7547 41.3825L36.8295 43.872C35.3136 44.2556 34.1227 45.4135 33.7045 46.9098L30.9659 56.784C30.9022 57.0187 30.6864 57.1836 30.441 57.1814Z" fill="#FA3640"/>
<path d="M39.7093 28.1145C39.4616 28.1123 39.2457 27.9453 39.1866 27.706L38.0388 23.2238C37.8548 22.506 37.298 21.9395 36.5798 21.7432L32.0593 20.5064C31.8207 20.4387 31.6571 20.222 31.6593 19.976C31.6639 19.73 31.8321 19.5179 32.0707 19.4569L36.5775 18.3262H36.5798C37.3025 18.1434 37.8707 17.5905 38.0684 16.875L39.3184 12.3995C39.382 12.1625 39.5979 12 39.8434 12C40.0866 12 40.3025 12.1625 40.3661 12.3995L41.507 16.875C41.6888 17.5927 42.2456 18.1592 42.9661 18.3556L47.4865 19.5924H47.4843C47.7252 19.6578 47.8888 19.8767 47.8865 20.1227C47.8865 20.3687 47.7161 20.5832 47.4729 20.6396L42.9661 21.7725C42.2433 21.9554 41.6729 22.5083 41.4729 23.2215L40.2275 27.7105H40.2297C40.1684 27.9475 39.9548 28.1123 39.7093 28.1145Z" fill="#FA3640"/>
<path d="M50.5069 35.7109C50.2569 35.7109 50.0409 35.5417 49.9819 35.3002L49.5 33.4044V33.4066C49.3523 32.8221 48.8977 32.3617 48.3137 32.2014L46.3955 31.6778C46.1568 31.6124 45.9909 31.3957 45.9932 31.1497C45.9955 30.9037 46.1659 30.6893 46.4068 30.6306L48.3136 30.1521C48.9022 30.0032 49.3636 29.554 49.525 28.974L50.0522 27.0691H50.0545C50.1181 26.8321 50.3341 26.6696 50.5795 26.6719C50.8295 26.6719 51.0454 26.8412 51.1045 27.0804L51.5863 28.974C51.734 29.5562 52.1886 30.0167 52.7727 30.1769L54.6909 30.7005V30.7028C54.9295 30.766 55.0954 30.9849 55.0909 31.2309C55.0909 31.4769 54.9204 31.6913 54.6795 31.75L52.7727 32.2307C52.1841 32.3774 51.7205 32.8265 51.5591 33.4089L51.0319 35.3137C50.9682 35.5485 50.7523 35.7132 50.5069 35.7109Z" fill="#FA3640"/>
</svg>
