<svg width="70" height="70" viewBox="0 0 70 70" fill="none" xmlns="http://www.w3.org/2000/svg">
<circle cx="35" cy="35" r="35" fill="#F6F5F3"/>
<path d="M53.9953 44.2455C53.956 43.346 53.9953 42.4479 53.8774 41.5483C53.2908 38.1859 50.71 35.6839 47.2706 35.2152C46.1761 35.0595 45.0421 35.0595 43.9082 34.9416C42.032 34.7072 40.3901 33.9256 39.1774 32.4001C37.9649 30.8761 37.3405 29.077 36.7932 27.2401C36.5196 26.3405 35.9329 25.7932 35.0727 25.7539C34.2517 25.7146 33.5865 26.2619 33.3129 27.1615C32.9999 28.1004 32.6869 29.077 32.2969 30.0159C31.5545 31.8135 30.4206 33.339 28.6215 34.2385C27.4876 34.7858 26.3144 35.0201 25.0641 35.0595C24.2825 35.0988 23.5008 35.0988 22.7177 35.2545C19.0846 35.8396 16.5037 38.4204 16.1124 41.9778C15.9174 43.5426 16.0353 45.1451 16.0353 46.7085C16.0353 47.6474 16.7384 48.3504 17.7166 48.429C18.5768 48.4684 19.3978 47.8031 19.5142 46.9051C19.5535 46.5528 19.5535 46.1627 19.5535 45.8105V43.074C19.5535 42.9183 19.5928 42.6824 19.7878 42.6446C19.9435 42.6446 20.0615 42.8397 20.1008 42.9969C20.1401 43.1148 20.1401 43.2705 20.1401 43.3885V46.4379C20.1401 47.1802 20.3744 47.4146 21.1167 47.4146H28.779C29.5606 47.4146 29.7556 47.1802 29.7556 46.4379V38.1104C29.7556 37.681 29.8735 37.4451 30.2636 37.2894C31.6711 36.5864 32.8444 35.6082 33.7817 34.3186C34.2111 33.732 34.6027 33.1061 35.0713 32.4423C35.1499 32.5602 35.1893 32.6374 35.227 32.716C36.3216 34.7101 37.8471 36.3127 39.9184 37.3287C40.2313 37.4844 40.2706 37.7203 40.2706 38.0317V46.4754C40.2706 47.1784 40.4657 47.3749 41.1702 47.3749H48.911C49.6533 47.3749 49.8876 47.1799 49.8876 46.3983V43.0752C49.8876 42.9195 49.9663 42.6458 50.1613 42.6458C50.3956 42.6458 50.4742 42.8802 50.5135 43.0752C50.5529 43.1931 50.5529 43.3489 50.5529 43.5046V46.672C50.5529 47.7273 51.2559 48.4318 52.2341 48.4318C53.2501 48.4318 53.9939 47.7288 53.9939 46.672C53.9954 45.848 53.9953 45.0272 53.9953 44.2455Z" fill="#FA3640"/>
<path d="M24.6343 33.8477C26.8628 33.8477 28.6997 32.0108 28.6997 29.8593C28.6997 27.4751 26.9399 25.6758 24.5557 25.6758C22.2879 25.6758 20.4902 27.5127 20.4902 29.7803C20.4902 32.0088 22.368 33.8473 24.6343 33.8473V33.8477Z" fill="#FA3640"/>
<path d="M45.3936 33.8473C47.7007 33.8473 49.4981 32.0497 49.4981 29.7819C49.4603 27.514 47.7005 25.7148 45.4722 25.7148C43.2043 25.7148 41.3676 27.5124 41.3281 29.7408C41.3281 31.9693 43.1651 33.8469 45.3936 33.8469V33.8473Z" fill="#FA3640"/>
<path d="M35.0341 24.5807C35.2685 24.5807 35.4257 24.425 35.4257 24.1892V22.3916C35.4257 22.1572 35.27 22 35.0341 22C34.7998 22 34.6426 22.1557 34.6426 22.3916V24.1892C34.6426 24.425 34.7998 24.5807 35.0341 24.5807Z" fill="#FA3640"/>
<path d="M37.3414 25.6749C37.42 25.6749 37.5364 25.6356 37.615 25.5963L39.1012 24.3067C39.2569 24.151 39.2962 23.9151 39.1405 23.7594C38.9848 23.6037 38.7489 23.5643 38.5932 23.7201L37.107 25.0097C36.9513 25.1654 36.912 25.4013 37.0677 25.557C37.1448 25.6356 37.2235 25.6749 37.3414 25.6749Z" fill="#FA3640"/>
<path d="M32.4149 25.5587C32.4935 25.6373 32.5706 25.6373 32.6886 25.6373C32.8065 25.6373 32.9229 25.598 33.0015 25.5194C33.1572 25.3637 33.1195 25.1278 32.9622 24.9721L31.4761 23.6825C31.3203 23.5268 31.0845 23.5645 30.9288 23.7218C30.773 23.8775 30.8108 24.1134 30.9681 24.2691L32.4149 25.5587Z" fill="#FA3640"/>
</svg>
