<svg width="70" height="70" viewBox="0 0 70 70" fill="none" xmlns="http://www.w3.org/2000/svg">
<circle cx="35" cy="35" r="35" fill="white"/>
<path d="M23.9627 34.1894L24.6019 33.5332L25.3562 34.4081C25.6048 34.6851 25.9443 34.8428 26.3122 34.8513H26.3406C26.6971 34.8513 27.0323 34.7093 27.2852 34.4493L28.271 33.438C28.5309 33.171 28.6701 32.8173 28.663 32.4394C28.6559 32.0616 28.5025 31.7136 28.2269 31.4522L27.3789 30.6823L28.0181 30.0261C28.7213 29.3045 28.7213 28.1312 28.0181 27.4096L27.9457 27.3343C27.0224 26.3869 25.7454 25.8769 24.44 25.9352C23.1176 25.9948 21.9159 26.6042 21.0593 27.6511C19.5195 29.5332 19.6758 32.4053 21.4144 34.1893C22.1161 34.9109 23.261 34.911 23.9627 34.1894Z" fill="#FA3640"/>
<path d="M26.1368 25.0284C27.4877 25.0284 28.5871 23.9006 28.5871 22.5142C28.5857 21.1279 27.4877 20 26.1368 20C24.7859 20 23.6865 21.1279 23.6865 22.5142C23.6865 23.9006 24.7859 25.0284 26.1368 25.0284Z" fill="#FA3640"/>
<path d="M47.323 22.6334C47.323 24.0226 46.2264 25.149 44.8727 25.149C43.5204 25.149 42.4238 24.0226 42.4238 22.6334C42.4238 21.2456 43.5204 20.1191 44.8727 20.1191C46.2264 20.1191 47.323 21.2456 47.323 22.6334Z" fill="#FA3640"/>
<path d="M32.8409 35.3097C34.1918 35.3097 35.2912 34.1818 35.2912 32.7955C35.2912 31.4091 34.1918 30.2812 32.8409 30.2812C31.49 30.2812 30.3906 31.4091 30.3906 32.7955C30.3906 34.1818 31.49 35.3097 32.8409 35.3097Z" fill="#FA3640"/>
<path d="M35.7526 28.5185C38.041 28.5185 39.9017 26.608 39.9017 24.26C39.9017 21.9106 38.0409 20 35.7526 20C33.4642 20 31.6035 21.9105 31.6035 24.2585C31.6035 26.608 33.4657 28.5185 35.7526 28.5185ZM35.7526 21.804C37.0722 21.804 38.1446 22.9063 38.1446 24.26C38.1446 25.6137 37.0722 26.7145 35.7526 26.7145C34.433 26.7145 33.3606 25.6137 33.3606 24.26C33.3606 22.9048 34.4344 21.804 35.7526 21.804Z" fill="#FA3640"/>
<path d="M35.7508 25.9495C36.6585 25.9495 37.3971 25.191 37.3971 24.2606C37.3971 23.3288 36.6585 22.5703 35.7508 22.5703C34.8431 22.5703 34.1045 23.3288 34.1045 24.2606C34.1045 25.191 34.8431 25.9495 35.7508 25.9495Z" fill="#FA3640"/>
<path d="M38.9643 34.8539L39.4344 36.3525H40.5864L45.3166 31.4961C45.4629 31.347 45.6987 31.347 45.8436 31.4961C45.9899 31.6453 45.9899 31.8882 45.8436 32.0373L41.6403 36.3511H45.1915C45.8633 36.3511 46.4514 35.9633 46.69 35.3625C46.8037 35.0755 46.825 34.7858 46.7554 34.4747C46.7298 34.3611 46.7554 34.2417 46.8264 34.1494C46.8974 34.0585 47.004 34.0045 47.119 34.0045H47.5125C48.3377 34.0045 49.0451 33.3554 49.0892 32.5571C49.1133 32.1068 48.9457 31.6693 48.6275 31.3568C48.4826 31.2147 48.4727 30.9818 48.6048 30.8284C49.1204 30.2218 49.0906 29.3014 48.5366 28.7318C47.9826 28.1622 47.0849 28.1324 46.494 28.6622C46.3434 28.7971 46.1161 28.7858 45.9784 28.638C45.6744 28.3113 45.2482 28.138 44.8093 28.1636C44.0324 28.2091 43.3988 28.9349 43.3988 29.7829V30.1878C43.3988 30.3042 43.3463 30.415 43.2582 30.4875C43.1687 30.5599 43.0522 30.5869 42.9414 30.5599C42.6389 30.4875 42.3562 30.5088 42.0764 30.6267C41.494 30.871 41.102 31.5031 41.102 32.1977V32.5443C41.102 32.6608 41.0494 32.7716 40.9613 32.844C40.8718 32.9164 40.7554 32.9434 40.6446 32.9164C40.288 32.8312 39.95 32.8781 39.646 33.0315C39.0281 33.3426 38.7356 34.1252 38.9643 34.8539Z" fill="#FA3640"/>
<path d="M26.9534 49.0922H42.8825C46.6709 46.372 48.9676 41.926 49.0843 37.1162H20.752C20.8684 41.926 23.1649 46.3718 26.9534 49.0922Z" fill="#FA3640"/>
</svg>
