<svg width="70" height="70" viewBox="0 0 70 70" fill="none" xmlns="http://www.w3.org/2000/svg">
<circle cx="35" cy="35" r="35" fill="white"/>
<path d="M29.0188 33.5709C28.91 33.5709 28.8025 33.5748 28.6937 33.5827C28.5849 33.5906 28.48 33.5997 28.3765 33.6115V37.8653H29.2206C30.1841 37.8653 30.8801 37.6804 31.3101 37.3095C31.567 37.0879 31.7387 36.7943 31.841 36.447C31.3599 35.6395 30.9693 34.7743 30.6809 33.8607C30.5642 33.8135 30.4476 33.7637 30.3152 33.727C29.9495 33.6221 29.5169 33.5709 29.0188 33.5709ZM33.1034 38.1995C33.0037 38.3043 32.8989 38.4039 32.7822 38.4944C31.9734 39.1249 30.7976 39.4395 29.256 39.4395H28.379V40.34H30.8303V41.9144H28.379V43.9107L26.2673 43.9121V41.9157H25.1714V40.3414H26.2673V39.4395H25.1714V37.8652H26.2673V32.0279C26.9765 32.0004 27.5348 31.9794 27.9438 31.9637C28.3528 31.9479 28.6163 31.9388 28.7356 31.9388C29.2009 31.9388 29.6558 31.9624 30.0989 32.0082C30.1539 32.0135 30.205 32.0253 30.2601 32.0318C30.1683 31.4275 30.1159 30.8115 30.1159 30.1823C30.1159 29.4246 30.188 28.684 30.3204 27.9643C29.9468 27.9224 29.5667 27.8988 29.1813 27.8975C23.5578 27.9066 19.0094 32.4566 19 38.0787C19.0105 43.7023 23.5591 48.2506 29.1813 48.26C33.4689 48.2522 37.1277 45.6056 38.6297 41.8566C36.4616 41.1619 34.5584 39.8798 33.1034 38.1995Z" fill="#FA3640"/>
<path d="M44.4302 26.2591C44.1863 26.0756 43.8809 25.9314 43.5126 25.8292C43.1442 25.7269 42.7117 25.6745 42.2135 25.6745C42.106 25.6745 41.9972 25.6784 41.8884 25.6863C41.781 25.6942 41.6748 25.7033 41.5712 25.7151V29.9689H42.4167C43.3802 29.9689 44.0762 29.784 44.5062 29.4131C44.9361 29.0421 45.1511 28.4942 45.1511 27.7693C45.1511 27.4613 45.0921 27.1781 44.9728 26.9212C44.8549 26.663 44.674 26.4426 44.4302 26.2591ZM42.3748 20C36.7526 20.0105 32.2039 24.5604 32.1935 30.1813C32.204 35.8035 36.7526 40.3522 42.3748 40.3626C47.997 40.3521 52.5467 35.8035 52.5561 30.1813C52.5456 24.5604 47.997 20.0104 42.3748 20ZM45.9755 30.5981C45.1667 31.2286 43.9909 31.5432 42.4493 31.5432H41.5723V32.4437H44.0236V34.018H41.5723V36.0144L39.4619 36.0157V34.0193H38.366V32.445H39.4619V31.5432H38.366V29.9689H39.4619V24.1329C40.171 24.1054 40.7294 24.0844 41.1384 24.0687C41.5474 24.053 41.8109 24.0438 41.9302 24.0438C42.3955 24.0438 42.8504 24.0674 43.2934 24.1133C43.7378 24.1591 44.1533 24.2378 44.544 24.3479C44.9333 24.4593 45.2912 24.6048 45.6149 24.7857C45.94 24.9679 46.2179 25.1934 46.4512 25.4634C46.6846 25.7334 46.8655 26.0546 46.9952 26.4256C47.125 26.7965 47.1906 27.2226 47.1906 27.7036C47.1892 29.0027 46.7856 29.9676 45.9755 30.5981Z" fill="#FA3640"/>
</svg>
