<svg width="232" height="232" viewBox="0 0 232 232" fill="none" xmlns="http://www.w3.org/2000/svg">
<g clip-path="url(#clip0_2_49)">
<rect width="232" height="232" rx="116" fill="#FF888E"/>
<path d="M36.7233 57.4754L34.5242 60.4534L27.0426 54.9965L30.654 50.0519L31.9563 51.0021L29.3988 54.5053L30.9118 55.608L32.0407 54.0953C32.2482 53.7623 32.5238 53.477 32.8493 53.2581C33.1749 53.0392 33.5431 52.8916 33.9297 52.825C34.3164 52.7585 34.7127 52.7745 35.0928 52.8719C35.4728 52.9694 35.8279 53.1462 36.1348 53.3906C36.4584 53.6069 36.7329 53.8888 36.9404 54.2181C37.148 54.5473 37.2839 54.9166 37.3394 55.3018C37.3949 55.6871 37.3688 56.0797 37.2626 56.4541C37.1565 56.8286 36.9727 57.1766 36.7233 57.4754ZM33.3104 55.0932L32.2442 56.5526L34.306 58.0562L35.3721 56.5968C35.4849 56.4626 35.5688 56.3066 35.6187 56.1385C35.6687 55.9705 35.6835 55.7939 35.6623 55.6199C35.6412 55.4459 35.5844 55.278 35.4957 55.1269C35.4069 54.9757 35.288 54.8444 35.1464 54.7411C35.0047 54.6377 34.8433 54.5647 34.6723 54.5264C34.5012 54.488 34.324 54.4853 34.1519 54.5184C33.9797 54.5514 33.8161 54.6195 33.6714 54.7184C33.5266 54.8172 33.4037 54.9448 33.3104 55.0932Z" fill="white"/>
<path d="M41.8458 52.7654C42.1016 53.1255 42.2207 53.565 42.1818 54.0049C42.1428 54.4449 41.9483 54.8565 41.6331 55.166L41.2027 55.6684L40.0451 54.6857L40.3009 54.3879C40.376 54.326 40.4379 54.2495 40.4828 54.1632C40.5277 54.0768 40.5546 53.9822 40.5621 53.8852C40.5695 53.7881 40.5572 53.6906 40.526 53.5984C40.4948 53.5062 40.4453 53.4212 40.3804 53.3486L39.9257 52.5921L33.622 50.2925L34.7733 48.9263L38.8957 50.5767L36.5738 46.8397L37.721 45.4794L41.8458 52.7654Z" fill="white"/>
<path d="M47.6763 47.2722L46.4704 46.1167L43.7825 48.901L44.9843 50.0625L43.8695 51.2086L41.5948 49.0173L42.0732 48.5215C41.7222 47.4629 41.0803 46.5245 40.221 45.8137L38.7336 44.3785L42.1128 40.8763L45.9145 44.5474L46.5104 43.9306L48.7851 46.122L47.6763 47.2722ZM42.018 43.1299L40.9396 44.2484L41.5802 44.8606C42.335 45.5093 42.9244 46.3285 43.2996 47.2503L44.7388 45.757L42.018 43.1299Z" fill="white"/>
<path d="M50.8086 42.0693L48.3817 44.2532L43.8577 39.2054L45.1247 38.0669L46.7581 39.8906L47.9179 38.8451C48.1267 38.639 48.3752 38.4774 48.6483 38.3702C48.9214 38.2629 49.2135 38.2122 49.5068 38.2212C49.8 38.2301 50.0884 38.2985 50.3545 38.4222C50.6205 38.5459 50.8587 38.7224 51.0545 38.9409C51.2504 39.1593 51.3999 39.4153 51.4939 39.6932C51.5879 39.9711 51.6246 40.2652 51.6016 40.5577C51.5786 40.8502 51.4964 41.135 51.3601 41.3948C51.2238 41.6547 51.0362 41.8841 50.8086 42.0693ZM47.6007 40.9118L48.7253 42.1607L49.6948 41.2915C49.8604 41.1424 49.96 40.9336 49.9716 40.711C49.9833 40.4885 49.906 40.2704 49.7569 40.1048C49.6078 39.9392 49.3989 39.8396 49.1764 39.8279C48.9538 39.8163 48.7358 39.8935 48.5702 40.0427L47.6007 40.9118Z" fill="white"/>
<path d="M58.5226 35.919L55.7305 37.9586L51.7302 32.4897L54.4312 30.5192C55.4595 29.7689 56.5487 29.865 57.216 30.7842C57.3992 31.0168 57.511 31.2974 57.538 31.5922C57.565 31.887 57.506 32.1833 57.3682 32.4453C57.684 32.3726 58.0144 32.3978 58.3156 32.5174C58.6168 32.6371 58.8744 32.8455 59.0543 33.1151C59.2226 33.3272 59.3433 33.573 59.4081 33.836C59.4729 34.0989 59.4803 34.3726 59.4299 34.6387C59.3794 34.9047 59.2722 35.1568 59.1157 35.3777C58.9591 35.5986 58.7568 35.7832 58.5226 35.919ZM53.8421 32.5229L54.703 33.6967L55.7172 32.9543C55.8109 32.9045 55.8924 32.8347 55.956 32.7499C56.0197 32.6651 56.0639 32.5673 56.0855 32.4635C56.1071 32.3596 56.1055 32.2524 56.081 32.1492C56.0565 32.046 56.0096 31.9495 55.9436 31.8665C55.677 31.5009 55.305 31.4306 54.8604 31.7745L53.8421 32.5229ZM56.5104 33.9069L55.4316 34.6927L56.3655 35.9775L57.4484 35.1857C57.5446 35.1311 57.6277 35.056 57.6918 34.9659C57.756 34.8757 57.7996 34.7726 57.8197 34.6638C57.8398 34.555 57.8359 34.4431 57.8082 34.336C57.7805 34.2289 57.7296 34.1291 57.6593 34.0437C57.6048 33.9424 57.527 33.8554 57.4322 33.7902C57.3374 33.725 57.2284 33.6834 57.1143 33.6688C57.0002 33.6543 56.8842 33.6671 56.776 33.7064C56.6679 33.7457 56.5707 33.8102 56.4925 33.8947L56.5104 33.9069Z" fill="white"/>
<path d="M63.9273 32.2684L60.4961 26.4269L61.9646 25.5572L65.3958 31.3987L63.9273 32.2684ZM67.4088 30.2182L63.6057 28.3308L63.893 24.4239L65.5974 23.4266L65.1334 27.3615L69.1214 29.2089L67.4088 30.2182Z" fill="white"/>
<path d="M73.4335 26.2388C73.1686 26.9691 72.6362 27.5715 71.944 27.9241C71.2518 28.2767 70.4515 28.3531 69.7051 28.138C68.8668 27.8282 68.3743 27.2296 67.8374 26.1194C67.3004 25.0093 67.0899 24.2795 67.3498 23.4246C67.4709 23.0567 67.6663 22.7176 67.9239 22.4284C68.1815 22.1393 68.4958 21.9061 68.8473 21.7435C69.1891 21.552 69.5676 21.4348 69.9579 21.3997C70.3483 21.3646 70.7416 21.4124 71.1121 21.5399C71.9505 21.8497 72.431 22.4401 72.972 23.5443C73.513 24.6485 73.7113 25.3962 73.4335 26.2388ZM70.3485 23.0045C70.2091 22.9598 70.0618 22.9445 69.9161 22.9595C69.7704 22.9744 69.6294 23.0194 69.5019 23.0914C69.3708 23.1492 69.2532 23.2338 69.1568 23.3397C69.0604 23.4457 68.9872 23.5706 68.942 23.7066C68.7787 24.1637 69.015 24.7275 69.3248 25.3501C69.5112 25.9054 69.8995 26.3704 70.4128 26.6527C70.6925 26.7262 70.9894 26.6955 71.2482 26.5663C71.5069 26.4372 71.7099 26.2183 71.8194 25.9506C71.9808 25.4834 71.7445 24.9197 71.4287 24.293C71.2456 23.7417 70.8594 23.281 70.3485 23.0045Z" fill="white"/>
<path d="M80.6128 24.0007L79.1434 20.3732L78.9023 23.1743L78.0085 23.5353L75.8604 21.684L77.3297 25.3115L75.7392 25.9754L73.1967 19.6908L74.7528 19.0645L77.7501 21.6967L78.0662 17.722L79.6122 17.0976L82.1487 23.3782L80.6128 24.0007Z" fill="white"/>
<path d="M87.1117 21.7714L86.9334 21.2123C86.801 21.4906 86.6079 21.7356 86.3681 21.9293C86.1284 22.123 85.8483 22.2604 85.5484 22.3314C85.2552 22.4462 84.9421 22.5014 84.6273 22.4938C84.3125 22.4862 84.0024 22.416 83.7151 22.2873C83.2296 22.0025 82.8739 21.5401 82.7232 20.9978C82.3997 19.9721 82.8383 18.9068 84.3646 18.4265L85.865 17.9459L85.7582 17.6281C85.5415 16.9203 85.0928 16.7189 84.2341 16.9901C83.9928 17.048 83.7698 17.165 83.585 17.3305C83.4002 17.4961 83.2595 17.705 83.1756 17.9385L81.8362 17.2604C82.014 16.8427 82.2892 16.4736 82.639 16.1842C82.9888 15.8947 83.4029 15.6934 83.8465 15.597C85.6706 15.0138 86.8478 15.4936 87.3202 17.0059L88.6685 21.2593L87.1117 21.7714ZM86.2136 19.05L84.9828 19.4433C84.3393 19.6427 84.1109 20.0029 84.2699 20.4877C84.4289 20.9724 84.8101 21.1188 85.4778 20.9097C85.6553 20.8724 85.8231 20.7985 85.9706 20.6929C86.118 20.5872 86.2419 20.452 86.3342 20.2958C86.4809 20.081 86.4498 19.8061 86.3179 19.4098L86.2136 19.05Z" fill="white"/>
<path d="M94.0512 19.9107L93.4268 17.2624L91.3249 17.7785L91.9593 20.4249L90.3016 20.8155L88.6865 14.2104L90.3482 13.8138L90.9423 16.3013L93.0442 15.7852L92.4502 13.2977L94.1019 12.9029L95.717 19.5081L94.0512 19.9107Z" fill="white"/>
<path d="M102.257 20.0625L101.989 18.4183L98.1559 19.0476L98.4207 20.6718L96.8426 20.9331L96.3396 17.8253L97.0202 17.7125C97.3717 16.6532 97.4203 15.5167 97.1604 14.4313L96.8101 12.3813L101.606 11.5961L102.435 16.7898L103.283 16.6508L103.786 19.7586L102.257 20.0625ZM100.172 13.3901L98.644 13.6419L98.7928 14.5133C99.012 15.4694 99.0073 16.4632 98.779 17.4171L100.829 17.0668L100.172 13.3901Z" fill="white"/>
<path d="M105.65 15.1084C105.648 15.3099 105.691 15.5093 105.775 15.6926C105.859 15.8758 105.982 16.0385 106.135 16.1691C106.289 16.2997 106.469 16.3951 106.663 16.4486C106.858 16.5021 107.061 16.5124 107.26 16.4788C107.544 16.4678 107.821 16.3946 108.073 16.2644C108.326 16.1341 108.546 15.9501 108.719 15.7252L109.848 16.6354C109.563 17.0251 109.193 17.3449 108.766 17.5705C108.339 17.796 107.867 17.9214 107.384 17.9371C105.789 18.082 104.182 17.5012 103.966 14.7292C103.734 12.5061 104.845 11.1736 106.588 11.0163C108.458 10.8404 109.657 12.096 109.802 13.9975L109.869 14.7077L105.65 15.1084ZM107.885 13.0125C107.762 12.8112 107.585 12.6485 107.374 12.5427C107.163 12.4369 106.926 12.3923 106.691 12.4139C106.456 12.4355 106.232 12.5225 106.043 12.665C105.855 12.8075 105.711 12.9998 105.626 13.2203C105.54 13.4583 105.509 13.7132 105.538 13.9648L108.104 13.7304C108.092 13.4725 108.022 13.2207 107.897 12.9947L107.885 13.0125Z" fill="white"/>
<path d="M114.372 14.3259L114.44 12.7013L126.273 13.1937L126.205 14.8183L114.372 14.3259Z" fill="white"/>
<path d="M134.226 19.0866L130.575 18.4234L132.226 9.31482L138.255 10.4029L137.983 11.9672L133.732 11.2352L133.376 13.039L135.248 13.3721C135.632 13.4275 136.002 13.5597 136.334 13.7609C136.666 13.9621 136.954 14.2282 137.181 14.5432C137.408 14.8582 137.569 15.2157 137.655 15.5944C137.741 15.9731 137.749 16.3652 137.68 16.7473C137.611 17.1293 137.466 17.4936 137.253 17.8182C137.04 18.1428 136.763 18.4212 136.44 18.6368C136.117 18.8523 135.754 19.0006 135.373 19.0727C134.991 19.1448 134.599 19.1393 134.22 19.0565L134.226 19.0866ZM134.89 14.9475L133.122 14.6154L132.67 17.1236L134.438 17.4556C134.604 17.5011 134.777 17.51 134.947 17.4816C135.117 17.4533 135.278 17.3883 135.42 17.2912C135.562 17.1942 135.681 17.0674 135.769 16.9197C135.857 16.772 135.912 16.6069 135.93 16.4359C135.972 16.2689 135.978 16.0947 135.947 15.9252C135.916 15.7557 135.849 15.5949 135.751 15.4537C135.652 15.3124 135.524 15.1941 135.376 15.1067C135.227 15.0194 135.062 14.9651 134.89 14.9475Z" fill="white"/>
<path d="M140.69 21.6521C140.478 22.0388 140.136 22.3374 139.725 22.4941C139.313 22.6509 138.859 22.6556 138.444 22.5073L137.804 22.342L138.189 20.8551L138.567 20.9555C138.655 20.9959 138.751 21.0181 138.848 21.0207C138.945 21.0234 139.041 21.0065 139.132 20.971C139.222 20.9355 139.304 20.8822 139.374 20.8142C139.443 20.7462 139.498 20.665 139.535 20.5753L140.032 19.8473L139.348 13.1601L141.074 13.6039L141.391 18.0103L143.746 14.2905L145.469 14.7402L140.69 21.6521Z" fill="white"/>
<path d="M148.165 24.5159L148.688 22.9304L145.002 21.7176L144.483 23.2972L142.96 22.7995L143.952 19.7942L144.607 20.0138C145.408 19.2366 145.975 18.2507 146.244 17.1679L146.887 15.2009L151.515 16.7246L149.858 21.7167L150.672 21.9842L149.679 25.0416L148.165 24.5159ZM149.437 17.6157L147.968 17.1287L147.69 17.9713C147.433 18.9343 146.952 19.8231 146.287 20.5653L148.25 21.2141L149.437 17.6157Z" fill="white"/>
<path d="M154.225 25.0836L151.209 23.838L153.793 17.5795L155.365 18.224L154.434 20.4845L155.879 21.0855C156.158 21.1773 156.414 21.3268 156.632 21.5243C156.849 21.7217 157.023 21.9627 157.141 22.2316C157.26 22.5005 157.32 22.7913 157.319 23.0851C157.318 23.3789 157.255 23.6692 157.134 23.937C157.029 24.2118 156.868 24.4618 156.661 24.6709C156.454 24.88 156.206 25.0437 155.932 25.1516C155.659 25.2595 155.366 25.3091 155.072 25.2974C154.778 25.2857 154.49 25.2129 154.225 25.0836ZM153.906 21.7072L153.263 23.2633L154.468 23.7535C154.57 23.8136 154.684 23.8503 154.802 23.8612C154.92 23.8721 155.038 23.8569 155.149 23.8165C155.261 23.7762 155.361 23.7118 155.445 23.6279C155.528 23.544 155.592 23.4428 155.631 23.3314C155.68 23.2264 155.705 23.1123 155.705 22.9968C155.705 22.8813 155.681 22.767 155.634 22.6617C155.586 22.5564 155.517 22.4624 155.43 22.3862C155.343 22.3099 155.241 22.2531 155.131 22.2196L153.906 21.7072Z" fill="white"/>
<path d="M163.116 29.3591L160.069 27.7605L163.269 21.7913L166.222 23.3608C167.344 23.9603 167.731 24.9946 167.191 25.9908C167.056 26.2568 166.848 26.4782 166.59 26.6282C166.332 26.7783 166.037 26.8507 165.739 26.8366C165.946 27.0918 166.068 27.4049 166.089 27.7326C166.11 28.0603 166.028 28.3864 165.855 28.6656C165.734 28.9039 165.563 29.1135 165.354 29.2804C165.144 29.4472 164.902 29.5675 164.643 29.6332C164.383 29.6988 164.113 29.7084 163.85 29.6611C163.587 29.6138 163.336 29.5109 163.116 29.3591ZM164.143 23.6386L163.459 24.9218L164.575 25.5172C165.043 25.7668 165.423 25.6588 165.636 25.2443C165.849 24.8297 165.725 24.4736 165.257 24.224L164.143 23.6386ZM164.056 26.6498L162.876 26.0197L162.131 27.4184L163.311 28.0485C163.4 28.1127 163.503 28.1557 163.611 28.1742C163.719 28.1927 163.831 28.1862 163.936 28.1553C164.041 28.1244 164.138 28.0698 164.22 27.9957C164.301 27.9217 164.364 27.8301 164.405 27.7279C164.465 27.6372 164.504 27.534 164.519 27.426C164.534 27.3181 164.524 27.2081 164.491 27.1044C164.457 27.0008 164.401 26.906 164.325 26.8273C164.25 26.7485 164.158 26.6879 164.056 26.6498Z" fill="white"/>
<path d="M166.228 31.0904L169.831 25.3521L171.27 26.2557L167.674 31.9981L166.228 31.0904ZM169.656 33.2463L169.572 28.9987L173.169 27.4469L174.842 28.4933L171.136 29.8997L171.372 34.3213L169.656 33.2463Z" fill="white"/>
<path d="M173.362 37.1229C173.023 37.4039 172.595 37.5556 172.155 37.5511C171.714 37.5467 171.289 37.3863 170.956 37.0985L170.407 36.7238L171.302 35.489L171.624 35.709C171.692 35.7792 171.773 35.835 171.863 35.8729C171.953 35.9108 172.05 35.9302 172.147 35.9297C172.245 35.9293 172.341 35.9091 172.431 35.8704C172.52 35.8317 172.601 35.7752 172.668 35.7044L173.383 35.1952L175.174 28.7275L176.623 29.7695L175.309 33.9898L178.844 31.3731L180.294 32.415L173.362 37.1229Z" fill="white"/>
<path d="M178.955 40.1707C177.908 39.3075 177.072 37.6871 178.809 35.5657C180.546 33.4444 182.294 33.9465 183.345 34.8038C183.683 35.0524 183.963 35.3716 184.165 35.7393C184.367 36.107 184.487 36.5143 184.516 36.9329L182.909 37.0957C182.915 36.8854 182.872 36.6767 182.784 36.4858C182.695 36.295 182.564 36.1273 182.4 35.9958C182.263 35.8732 182.098 35.7848 181.921 35.7379C181.743 35.691 181.556 35.687 181.377 35.7261C180.873 35.877 180.437 36.198 180.144 36.6345C179.768 37.012 179.535 37.508 179.483 38.0381C179.479 38.2221 179.519 38.4044 179.599 38.57C179.679 38.7357 179.797 38.88 179.944 38.9911C180.107 39.1251 180.299 39.2196 180.504 39.2674C180.71 39.3152 180.924 39.3149 181.129 39.2666L181.296 40.8677C180.879 40.9295 180.453 40.8992 180.048 40.7787C179.644 40.6583 179.271 40.4508 178.955 40.1707Z" fill="white"/>
<path d="M184.429 44.9299L186.29 42.9462L184.688 41.4496L182.826 43.4333L181.582 42.2693L186.218 37.3239L187.462 38.4879L185.714 40.3566L187.316 41.8531L189.064 39.9844L190.308 41.1484L185.671 46.1099L184.429 44.9299Z" fill="white"/>
<path d="M189.063 49.6869L186.903 47.2764L191.951 42.7523L193.085 44.0253L191.266 45.6527L192.287 46.7963C192.494 47.0051 192.655 47.2536 192.762 47.5267C192.87 47.7998 192.92 48.0918 192.911 48.3851C192.902 48.6783 192.834 48.9668 192.71 49.2328C192.587 49.4989 192.41 49.7371 192.192 49.9329C191.973 50.1288 191.717 50.2782 191.439 50.3723C191.161 50.4663 190.867 50.5029 190.575 50.4799C190.282 50.4569 189.998 50.3748 189.738 50.2384C189.478 50.1021 189.248 49.9145 189.063 49.6869ZM190.241 46.5013L188.992 47.6259L189.841 48.5732C189.91 48.6696 189.999 48.7504 190.102 48.8101C190.205 48.8699 190.319 48.9074 190.437 48.9201C190.555 48.9328 190.675 48.9204 190.788 48.8838C190.901 48.8472 191.005 48.7872 191.093 48.7077C191.181 48.6282 191.252 48.531 191.3 48.4224C191.348 48.3138 191.373 48.1962 191.373 48.0774C191.372 47.9586 191.347 47.8412 191.298 47.7328C191.25 47.6244 191.179 47.5276 191.09 47.4485L190.241 46.5013ZM191.1 51.9699L196.152 47.4399L197.287 48.7128L192.247 53.225L191.1 51.9699Z" fill="white"/>
<path d="M196.423 58.7956L199.571 56.4652L196.794 56.9318L196.221 56.156L197.472 53.6325L194.328 55.9569L193.317 54.593L198.764 50.5603L199.757 51.912L197.964 55.4736L201.89 54.7851L202.875 56.1227L197.44 60.1635L196.423 58.7956Z" fill="white"/>
<path d="M198.709 62.1497L200.304 61.095L201.371 62.6979L199.772 63.7586L198.709 62.1497ZM202.008 61.9173L201.337 60.8638L206.456 57.08L207.589 58.842L202.008 61.9173Z" fill="white"/>
<path d="M206.49 76.6279L204.992 73.2346L213.484 69.4697L215.956 75.0762L214.478 75.7294L212.74 71.7783L211.026 72.5331L211.79 74.271C211.96 74.6204 212.058 75.0005 212.078 75.3885C212.098 75.7766 212.039 76.1646 211.905 76.5294C211.772 76.8942 211.566 77.2284 211.3 77.5118C211.034 77.7953 210.714 78.0223 210.359 78.1792C210.003 78.3362 209.62 78.4198 209.231 78.4252C208.843 78.4305 208.457 78.3575 208.098 78.2105C207.738 78.0634 207.412 77.8454 207.138 77.5694C206.865 77.2933 206.65 76.965 206.506 76.604L206.49 76.6279ZM210.275 74.8376L209.531 73.2101L207.199 74.2428L207.927 75.8941C207.986 76.0601 208.078 76.2121 208.199 76.3406C208.319 76.4692 208.465 76.5715 208.626 76.6411C208.788 76.7108 208.963 76.7462 209.139 76.7453C209.315 76.7444 209.489 76.7071 209.65 76.6358C209.811 76.5645 209.956 76.4607 210.075 76.3309C210.194 76.2012 210.285 76.0482 210.342 75.8816C210.399 75.715 210.421 75.5384 210.407 75.3629C210.393 75.1873 210.342 75.0166 210.259 74.8615L210.275 74.8376Z" fill="white"/>
<path d="M207.986 83.4063C207.546 83.4498 207.106 83.3372 206.742 83.0884C206.377 82.8397 206.112 82.4705 205.992 82.0458L205.771 81.4221L207.207 80.9067L207.339 81.2769C207.356 81.3727 207.391 81.4642 207.444 81.546C207.496 81.6277 207.564 81.6981 207.644 81.7528C207.725 81.8076 207.815 81.8456 207.91 81.8647C208.006 81.8837 208.104 81.8833 208.199 81.8635L209.077 81.8591L214.228 77.5546L214.827 79.2406L211.354 81.9703L215.753 81.832L216.355 83.5121L207.986 83.4063Z" fill="white"/>
<path d="M209.813 91.1982L211.411 90.7407L210.35 87.0155L208.751 87.473L208.305 85.9349L211.349 85.0644L211.536 85.7258C212.628 85.9532 213.761 85.8691 214.807 85.4831L216.796 84.9157L218.135 89.5919L213.049 91.0452L213.288 91.8736L210.249 92.7381L209.813 91.1982ZM216.227 88.3765L215.806 86.8909L214.952 87.13C214.013 87.4563 213.01 87.5599 212.024 87.4327L212.592 89.4209L216.227 88.3765Z" fill="white"/>
<path d="M212.749 96.5249L212.078 93.3291L218.705 91.9387L219.062 93.608L216.665 94.1068L216.985 95.6374C217.067 95.9198 217.088 96.2163 217.048 96.5074C217.007 96.7986 216.906 97.078 216.751 97.3275C216.595 97.577 216.389 97.791 216.145 97.9556C215.902 98.1202 215.626 98.2317 215.337 98.2828C215.051 98.3502 214.753 98.3574 214.464 98.3039C214.175 98.2504 213.9 98.1375 213.657 97.9723C213.413 97.807 213.207 97.593 213.051 97.3439C212.895 97.0948 212.792 96.8159 212.749 96.5249ZM215.36 94.327L213.715 94.6737L213.982 95.9492C214.004 96.0573 214.048 96.1598 214.11 96.2508C214.173 96.3419 214.253 96.4198 214.345 96.4801C214.438 96.5404 214.541 96.5819 214.65 96.6022C214.758 96.6225 214.869 96.6212 214.977 96.5984C215.086 96.5757 215.188 96.5319 215.279 96.4695C215.37 96.4071 215.448 96.3274 215.508 96.2349C215.569 96.1425 215.61 96.039 215.63 95.9305C215.651 95.822 215.649 95.7105 215.627 95.6025L215.36 94.327Z" fill="white"/>
<path d="M214.218 106.303L213.844 102.864L220.586 102.138L220.942 105.461C221.077 106.725 220.444 107.614 219.318 107.738C219.026 107.78 218.728 107.736 218.46 107.613C218.192 107.489 217.966 107.29 217.809 107.04C217.713 107.35 217.526 107.623 217.271 107.824C217.017 108.025 216.707 108.145 216.384 108.166C216.116 108.205 215.842 108.187 215.582 108.111C215.322 108.035 215.081 107.905 214.876 107.728C214.671 107.552 214.506 107.333 214.392 107.087C214.278 106.841 214.219 106.574 214.218 106.303ZM216.985 105.568L216.843 104.237L215.268 104.405L215.41 105.735C215.403 105.847 215.421 105.959 215.464 106.062C215.507 106.166 215.574 106.258 215.659 106.331C215.744 106.405 215.845 106.457 215.954 106.485C216.062 106.512 216.176 106.514 216.286 106.49C216.399 106.492 216.511 106.467 216.613 106.417C216.715 106.367 216.804 106.294 216.872 106.204C216.941 106.114 216.987 106.008 217.008 105.897C217.028 105.785 217.022 105.67 216.989 105.562L216.985 105.568ZM219.518 103.946L218.076 104.099L218.212 105.347C218.209 105.452 218.228 105.557 218.27 105.654C218.312 105.751 218.374 105.838 218.453 105.909C218.531 105.979 218.624 106.031 218.726 106.062C218.827 106.092 218.933 106.1 219.038 106.085C219.491 106.036 219.713 105.724 219.653 105.184L219.518 103.946Z" fill="white"/>
<path d="M214.683 112.797L221.457 112.741L221.473 114.449L214.692 114.501L214.683 112.797ZM214.713 116.842L218.246 114.486L221.48 116.693L221.501 118.676L218.318 116.302L214.718 118.884L214.713 116.842Z" fill="white"/>
<path d="M215.17 124.046C214.91 123.755 214.713 123.414 214.591 123.043C214.469 122.672 214.425 122.28 214.462 121.892C214.471 121.505 214.56 121.125 214.724 120.774C214.888 120.424 215.123 120.111 215.414 119.856C216.102 119.285 216.876 119.175 218.096 119.246C219.316 119.318 220.059 119.51 220.688 120.141C221.194 120.739 221.451 121.51 221.405 122.293C221.359 123.076 221.014 123.811 220.441 124.346C219.754 124.918 218.995 125.03 217.775 124.959C216.555 124.887 215.768 124.708 215.17 124.046ZM219.518 122.982C219.723 122.777 219.845 122.504 219.862 122.215C219.878 121.927 219.788 121.642 219.608 121.415C219.153 121.053 218.577 120.879 217.998 120.929C217.299 120.889 216.677 120.902 216.327 121.223C216.122 121.428 215.999 121.702 215.981 121.991C215.964 122.281 216.054 122.567 216.234 122.795C216.698 123.154 217.279 123.326 217.864 123.278C218.547 123.316 219.16 123.314 219.518 122.982Z" fill="white"/>
<path d="M213.553 131.395L217.43 131.933L215.108 130.348L215.239 129.388L217.902 128.459L214.026 127.922L214.259 126.235L220.971 127.168L220.72 128.817L216.944 130.106L220.233 132.35L219.99 133.987L213.275 133.06L213.553 131.395Z" fill="white"/>
<path d="M212.229 138.145L212.799 138.271C212.623 138.016 212.507 137.725 212.459 137.42C212.41 137.114 212.43 136.801 212.517 136.504C212.566 136.194 212.675 135.896 212.84 135.628C213.005 135.361 213.221 135.129 213.476 134.946C213.962 134.669 214.536 134.591 215.078 134.727C216.13 134.955 216.837 135.866 216.489 137.44L216.158 138.963L216.49 139.041C217.212 139.201 217.601 138.925 217.803 138.039C217.874 137.8 217.885 137.546 217.833 137.302C217.782 137.057 217.67 136.83 217.508 136.639L218.764 135.825C219.036 136.19 219.217 136.615 219.291 137.064C219.365 137.514 219.33 137.974 219.188 138.407C218.783 140.283 217.779 141.049 216.229 140.718L211.873 139.756L212.229 138.145ZM215.01 138.748L215.282 137.491C215.428 136.829 215.228 136.456 214.734 136.346C214.24 136.237 213.92 136.5 213.769 137.184C213.71 137.356 213.689 137.539 213.707 137.72C213.725 137.902 213.782 138.077 213.873 138.235C213.989 138.463 214.234 138.577 214.652 138.67L215.01 138.748Z" fill="white"/>
<path d="M210.35 145.061L212.955 145.833L213.571 143.751L210.98 142.997L211.461 141.357L217.959 143.282L217.472 144.918L215.021 144.19L214.401 146.277L216.882 147.026L216.399 148.656L209.907 146.735L210.35 145.061Z" fill="white"/>
<path d="M206.128 152.09L207.685 152.68L209.055 149.058L207.499 148.468L208.068 146.967L211.018 148.105L210.774 148.744C211.515 149.579 212.475 150.189 213.545 150.504L215.477 151.237L213.751 155.789L208.818 153.917L208.512 154.724L205.563 153.585L206.128 152.09ZM212.937 153.65L213.486 152.205L212.662 151.887C211.708 151.592 210.839 151.071 210.129 150.368L209.399 152.31L212.937 153.65Z" fill="white"/>
<path d="M208.734 157.516C208.56 157.415 208.366 157.353 208.166 157.334C207.966 157.315 207.764 157.34 207.574 157.407C207.385 157.474 207.212 157.581 207.068 157.721C206.924 157.862 206.812 158.032 206.74 158.22C206.599 158.477 206.518 158.762 206.503 159.055C206.488 159.348 206.54 159.64 206.653 159.91L205.315 160.423C205.128 159.98 205.043 159.5 205.068 159.02C205.093 158.54 205.226 158.072 205.458 157.65C206.125 156.199 207.434 155.115 209.91 156.254C211.904 157.178 212.544 158.804 211.803 160.389C211.008 162.104 209.331 162.499 207.582 161.69L206.92 161.378L208.734 157.516ZM209.423 160.506C209.658 160.498 209.886 160.425 210.083 160.296C210.279 160.166 210.435 159.985 210.535 159.772C210.634 159.558 210.672 159.322 210.645 159.088C210.618 158.854 210.527 158.633 210.381 158.448C210.213 158.271 210.01 158.132 209.784 158.041L208.701 160.371C208.93 160.472 209.179 160.52 209.429 160.51L209.423 160.506Z" fill="white"/>
<path d="M205.023 165.437L206.394 166.312L200.056 176.289L198.685 175.414L205.023 165.437Z" fill="white"/>
<path d="M190.952 180.258L193.346 177.431L200.411 183.408L196.458 188.084L195.226 187.043L198.01 183.747L196.586 182.539L195.356 183.982C195.121 184.301 194.824 184.568 194.481 184.766C194.139 184.965 193.76 185.092 193.367 185.138C192.974 185.184 192.575 185.149 192.196 185.035C191.817 184.92 191.466 184.73 191.164 184.474C190.861 184.219 190.615 183.904 190.439 183.549C190.264 183.194 190.163 182.807 190.143 182.412C190.123 182.017 190.185 181.622 190.324 181.251C190.463 180.881 190.677 180.543 190.952 180.258ZM194.186 182.877L195.355 181.497L193.411 179.846L192.242 181.226C192.133 181.354 192.051 181.502 192 181.661C191.949 181.821 191.929 181.988 191.943 182.155C191.97 182.492 192.131 182.805 192.389 183.024C192.646 183.243 192.98 183.35 193.318 183.323C193.655 183.295 193.967 183.135 194.186 182.877Z" fill="white"/>
<path d="M185.501 184.577C185.274 184.201 185.188 183.758 185.256 183.324C185.325 182.891 185.544 182.496 185.875 182.208L186.337 181.736L187.428 182.804L187.152 183.08C187.073 183.136 187.005 183.208 186.954 183.291C186.903 183.374 186.869 183.467 186.855 183.563C186.841 183.66 186.846 183.758 186.871 183.853C186.895 183.947 186.939 184.035 186.999 184.112L187.391 184.896L193.505 187.653L192.263 188.922L188.286 186.994L190.331 190.893L189.085 192.168L185.501 184.577Z" fill="white"/>
<path d="M179.308 189.614L180.421 190.855L183.307 188.267L182.195 187.026L183.387 185.959L185.495 188.317L184.983 188.772C185.249 189.861 185.814 190.853 186.615 191.636L187.991 193.17L184.376 196.415L180.848 192.485L180.225 193.039L178.096 190.711L179.308 189.614ZM184.66 194.142L185.811 193.108L185.219 192.45C184.515 191.748 183.986 190.89 183.676 189.944L182.131 191.322L184.66 194.142Z" fill="white"/>
<path d="M175.775 194.596L178.357 192.596L182.498 197.96L181.156 199.004L179.642 197.095L178.427 198.016C178.204 198.207 177.945 198.35 177.664 198.438C177.384 198.525 177.089 198.555 176.797 198.525C176.504 198.494 176.222 198.405 175.965 198.262C175.708 198.12 175.483 197.926 175.304 197.694C175.124 197.462 174.994 197.195 174.92 196.911C174.847 196.627 174.832 196.33 174.876 196.04C174.921 195.75 175.024 195.472 175.179 195.222C175.334 194.973 175.539 194.758 175.779 194.59L175.775 194.596ZM178.887 195.985L177.861 194.655L176.832 195.457C176.745 195.525 176.672 195.609 176.618 195.705C176.564 195.8 176.529 195.906 176.515 196.015C176.501 196.124 176.509 196.235 176.538 196.342C176.568 196.448 176.617 196.547 176.685 196.634C176.753 196.721 176.837 196.794 176.932 196.848C177.028 196.903 177.134 196.938 177.243 196.951C177.352 196.965 177.463 196.957 177.569 196.928C177.675 196.899 177.775 196.849 177.862 196.781L178.887 195.985Z" fill="white"/>
<path d="M167.629 200.162L170.565 198.334L174.155 204.083L171.312 205.851C170.232 206.523 169.148 206.343 168.551 205.384C168.387 205.138 168.298 204.849 168.293 204.553C168.289 204.257 168.37 203.966 168.528 203.715C168.208 203.765 167.88 203.716 167.589 203.574C167.297 203.432 167.057 203.203 166.901 202.919C166.747 202.696 166.643 202.443 166.597 202.176C166.55 201.909 166.562 201.635 166.631 201.373C166.7 201.111 166.825 200.867 166.997 200.658C167.169 200.449 167.385 200.28 167.629 200.162ZM169.513 202.323L170.653 201.614L169.818 200.274L168.678 200.983C168.573 201.025 168.48 201.091 168.406 201.176C168.332 201.26 168.278 201.361 168.25 201.47C168.222 201.579 168.219 201.693 168.242 201.803C168.266 201.913 168.315 202.016 168.385 202.104C168.433 202.203 168.504 202.29 168.591 202.357C168.678 202.425 168.78 202.472 168.888 202.494C168.996 202.516 169.108 202.513 169.215 202.486C169.322 202.458 169.421 202.406 169.505 202.335L169.513 202.323ZM172.077 203.898L171.303 202.661L170.233 203.331C170.137 203.374 170.052 203.437 169.983 203.516C169.915 203.596 169.864 203.689 169.835 203.79C169.806 203.891 169.799 203.997 169.816 204.101C169.832 204.205 169.871 204.304 169.929 204.391C170.169 204.783 170.568 204.827 171.007 204.568L172.077 203.898Z" fill="white"/>
<path d="M161.011 203.885L164.724 205.929L164.272 209.82L162.529 210.747L163.175 206.814L159.231 204.813L161.011 203.885ZM164.599 201.96L167.776 207.943L166.268 208.742L163.091 202.759L164.599 201.96Z" fill="white"/>
<path d="M155.8 205.149C155.723 204.715 155.804 204.268 156.028 203.888C156.252 203.508 156.604 203.221 157.021 203.078L157.625 202.808L158.245 204.194L157.891 204.354C157.796 204.377 157.707 204.42 157.629 204.478C157.551 204.537 157.486 204.61 157.437 204.695C157.389 204.779 157.358 204.873 157.346 204.97C157.334 205.066 157.342 205.165 157.37 205.258L157.446 206.133L162.131 210.932L160.506 211.66L157.488 208.392L157.989 212.784L156.363 213.512L155.8 205.149Z" fill="white"/>
<path d="M150.356 208.458C151.618 207.981 153.445 208.073 154.413 210.641C155.381 213.209 154.054 214.473 152.786 214.946C152.403 215.11 151.989 215.189 151.572 215.178C151.156 215.167 150.746 215.066 150.372 214.882L151.046 213.408C151.224 213.519 151.426 213.587 151.636 213.607C151.845 213.627 152.056 213.598 152.253 213.523C152.428 213.464 152.587 213.365 152.718 213.234C152.848 213.103 152.947 212.944 153.005 212.768C153.122 212.252 153.058 211.712 152.825 211.237C152.686 210.724 152.377 210.273 151.949 209.957C151.79 209.864 151.612 209.808 151.428 209.795C151.245 209.782 151.06 209.811 150.89 209.881C150.693 209.955 150.515 210.073 150.37 210.225C150.225 210.378 150.117 210.561 150.053 210.762L148.583 210.108C148.741 209.721 148.982 209.373 149.288 209.088C149.595 208.804 149.959 208.589 150.356 208.458Z" fill="white"/>
<path d="M143.479 210.806L144.256 213.41L146.337 212.783L145.556 210.186L147.189 209.69L149.136 216.181L147.483 216.654L146.745 214.199L144.664 214.825L145.402 217.28L143.768 217.765L141.821 211.275L143.479 210.806Z" fill="white"/>
<path d="M134.055 213.051L135.431 219.686L133.766 220.036L132.384 213.397L134.055 213.051ZM137.026 212.454L140.197 211.794L141.584 218.426L139.941 218.731L139.442 216.335L137.942 216.649C137.657 216.726 137.359 216.743 137.067 216.701C136.776 216.659 136.495 216.557 136.244 216.403C135.993 216.249 135.775 216.045 135.605 215.803C135.436 215.562 135.317 215.289 135.256 215C135.196 214.712 135.195 214.413 135.254 214.124C135.312 213.835 135.43 213.561 135.598 213.319C135.766 213.077 135.982 212.871 136.233 212.716C136.483 212.56 136.763 212.457 137.054 212.412L137.026 212.454ZM139.194 215.071L138.853 213.43L137.626 213.651C137.508 213.663 137.394 213.7 137.291 213.759C137.188 213.818 137.099 213.898 137.029 213.994C136.959 214.09 136.91 214.199 136.885 214.315C136.86 214.431 136.86 214.551 136.885 214.667C136.909 214.783 136.958 214.892 137.027 214.988C137.097 215.084 137.186 215.164 137.288 215.224C137.391 215.283 137.505 215.32 137.623 215.333C137.741 215.345 137.86 215.333 137.973 215.296L139.194 215.071Z" fill="white"/>
<path d="M125.496 214.26L125.943 218.143L126.921 215.505L127.873 215.393L129.438 217.739L128.979 213.874L130.673 213.674L131.449 220.406L129.804 220.56L127.616 217.23L126.252 220.97L124.599 221.163L123.823 214.431L125.496 214.26Z" fill="white"/>
<path d="M121.472 214.541L121.56 216.464L119.623 216.559L119.535 214.636L121.472 214.541ZM120.027 217.517L121.252 217.478L121.978 223.809L119.887 223.913L120.027 217.517Z" fill="white"/>
<path d="M105.014 214.084L108.702 214.475L107.701 223.669L101.614 223.013L101.802 221.392L106.094 221.846L106.288 219.984L104.394 219.837C103.989 219.838 103.588 219.753 103.218 219.589C102.847 219.425 102.515 219.184 102.244 218.884C101.972 218.583 101.767 218.228 101.641 217.843C101.516 217.458 101.472 217.05 101.514 216.647C101.556 216.244 101.683 215.854 101.885 215.503C102.087 215.152 102.361 214.848 102.689 214.609C103.017 214.371 103.391 214.204 103.787 214.12C104.184 214.035 104.594 214.035 104.99 214.12L105.014 214.084ZM104.666 218.221L106.466 218.417L106.736 215.88L104.933 215.69C104.766 215.673 104.599 215.688 104.438 215.736C104.278 215.783 104.129 215.862 103.999 215.967C103.869 216.072 103.761 216.202 103.682 216.348C103.602 216.495 103.552 216.656 103.534 216.822C103.517 216.988 103.532 217.156 103.58 217.317C103.627 217.477 103.706 217.626 103.811 217.756C103.916 217.886 104.046 217.994 104.192 218.073C104.339 218.153 104.5 218.203 104.666 218.221Z" fill="white"/>
<path d="M98.3818 211.997C98.565 211.598 98.884 211.276 99.282 211.09C99.68 210.903 100.131 210.864 100.555 210.979L101.211 211.094L100.939 212.596L100.556 212.528C100.466 212.495 100.369 212.48 100.273 212.484C100.176 212.489 100.082 212.512 99.9947 212.554C99.9076 212.596 99.8297 212.654 99.7656 212.727C99.7015 212.799 99.6526 212.883 99.6217 212.975L99.1844 213.744L100.342 220.352L98.5924 220.032L97.9549 215.66L95.8802 219.545L94.1241 219.221L98.3818 211.997Z" fill="white"/>
<path d="M90.7317 209.696L90.3292 211.311L94.0707 212.238L94.4791 210.627L96.0281 211.011L95.265 214.077L94.5894 213.913C93.8557 214.749 93.3648 215.769 93.1703 216.864L92.6713 218.876L87.9506 217.692L89.2311 212.574L88.4017 212.366L89.1648 209.301L90.7317 209.696ZM89.9659 216.662L91.4609 217.035L91.6787 216.178C91.8614 215.202 92.2726 214.284 92.8785 213.498L90.8658 212.999L89.9659 216.662Z" fill="white"/>
<path d="M84.6184 209.566L87.7216 210.582L85.6129 217.016L83.9995 216.483L84.7266 214.136L83.2469 213.651C82.9599 213.577 82.691 213.445 82.457 213.263C82.223 213.081 82.0288 212.853 81.8864 212.593C81.744 212.333 81.6564 212.047 81.629 211.752C81.6017 211.457 81.6351 211.159 81.7273 210.878C81.8195 210.596 81.9685 210.336 82.165 210.114C82.3616 209.892 82.6015 209.713 82.8701 209.588C83.1386 209.462 83.43 209.393 83.7263 209.385C84.0226 209.377 84.3174 209.429 84.5926 209.539L84.6184 209.566ZM85.2149 212.921L85.7414 211.329L84.5053 210.923C84.4005 210.889 84.29 210.876 84.1802 210.884C84.0703 210.893 83.9632 210.923 83.8649 210.973C83.7667 211.023 83.6792 211.091 83.6076 211.175C83.5359 211.259 83.4814 211.356 83.4472 211.461C83.4131 211.565 83.3999 211.676 83.4084 211.786C83.4169 211.896 83.447 212.003 83.4969 212.101C83.5468 212.199 83.6156 212.287 83.6993 212.358C83.783 212.43 83.88 212.484 83.9848 212.519L85.2149 212.921Z" fill="white"/>
<path d="M75.4437 205.946L78.6048 207.351L75.8634 213.546L72.806 212.194C71.6413 211.67 71.2071 210.691 71.6394 209.648C71.7498 209.373 71.9373 209.137 72.1792 208.967C72.4211 208.797 72.7071 208.7 73.0027 208.689C72.7819 208.452 72.6391 208.153 72.5935 207.833C72.548 207.512 72.6018 207.185 72.7478 206.896C72.8463 206.644 72.9983 206.415 73.1933 206.226C73.3884 206.038 73.6218 205.893 73.8777 205.803C74.1337 205.713 74.4061 205.679 74.6763 205.703C74.9466 205.728 75.2083 205.811 75.4437 205.946ZM74.6978 208.717L75.9243 209.266L76.5294 207.816L75.3089 207.271C75.2127 207.22 75.107 207.189 74.9985 207.181C74.8899 207.172 74.7807 207.186 74.6777 207.221C74.5747 207.257 74.4801 207.313 74.3997 207.387C74.3193 207.46 74.2549 207.549 74.2105 207.649C74.166 207.748 74.1425 207.856 74.1413 207.965C74.1402 208.074 74.1614 208.182 74.2037 208.282C74.246 208.382 74.3085 208.473 74.3873 208.548C74.4661 208.623 74.5595 208.681 74.6618 208.719L74.6978 208.717ZM74.8333 211.723L75.4331 210.383L74.2804 209.867C73.7878 209.653 73.4175 209.786 73.2284 210.216C73.0394 210.647 73.202 210.986 73.6846 211.201L74.8333 211.723Z" fill="white"/>
<path d="M66.0804 201.094L66.3486 205.328L62.8228 207.033L61.1181 206.044L64.7646 204.483L64.3097 200.087L66.0804 201.094ZM69.5977 203.093L66.2484 208.986L64.7686 208.142L68.094 202.232L69.5977 203.093Z" fill="white"/>
<path d="M59.6072 197.864C59.9894 197.788 60.383 197.79 60.7644 197.87C61.1458 197.95 61.5071 198.106 61.8266 198.329C62.1567 198.532 62.4413 198.801 62.6624 199.119C62.8835 199.437 63.0362 199.797 63.1111 200.177C63.2658 201.053 62.9713 201.779 62.3007 202.8C61.6302 203.821 61.0831 204.366 60.2171 204.571C59.4485 204.705 58.6576 204.541 58.0058 204.113C57.3539 203.684 56.8902 203.023 56.7092 202.264C56.5585 201.382 56.8389 200.664 57.5154 199.647C58.1919 198.63 58.7094 198.039 59.6072 197.864ZM58.3477 202.157C58.3803 202.3 58.4413 202.435 58.5271 202.554C58.6129 202.672 58.7218 202.772 58.8471 202.848C58.9641 202.931 59.0962 202.989 59.2359 203.02C59.3757 203.05 59.5201 203.053 59.6608 203.027C60.2025 202.813 60.6416 202.399 60.888 201.87C61.2798 201.434 61.4903 200.864 61.4766 200.278C61.444 200.138 61.3836 200.006 61.2992 199.89C61.2148 199.773 61.108 199.675 60.985 199.601C60.868 199.514 60.7341 199.452 60.592 199.42C60.4498 199.388 60.3025 199.386 60.1594 199.413C59.6656 199.699 59.2449 200.096 58.9305 200.572C58.6161 201.048 58.4166 201.591 58.3477 202.157Z" fill="white"/>
<path d="M54.084 192.792L51.6773 195.882L54.2395 194.691L54.9966 195.287L54.4733 198.053L56.8759 194.969L58.2213 196.009L54.0622 201.359L52.7389 200.324L53.5092 196.415L49.9011 198.125L48.5856 197.104L52.7446 191.755L54.084 192.792Z" fill="white"/>
<path d="M48.8697 188.269L48.4782 188.702C48.7857 188.677 49.0949 188.721 49.383 188.831C49.671 188.942 49.9307 189.115 50.1426 189.339C50.3895 189.536 50.5943 189.78 50.7448 190.057C50.8953 190.334 50.9885 190.638 51.0188 190.952C51.016 191.512 50.7968 192.049 50.4071 192.451C49.6789 193.248 48.5389 193.406 47.3583 192.329L46.1914 191.27L45.9623 191.516C45.4714 192.056 45.5181 192.551 46.1828 193.154C46.3534 193.334 46.5665 193.47 46.8026 193.547C47.0388 193.624 47.2905 193.641 47.5348 193.596L47.6108 195.073C47.1585 195.126 46.7001 195.07 46.2742 194.909C45.8484 194.747 45.4676 194.486 45.1639 194.147C43.7511 192.859 43.5724 191.608 44.6413 190.44L47.6476 187.138L48.8697 188.269ZM46.9704 190.411L47.9249 191.281C48.4209 191.733 48.8456 191.752 49.1904 191.375C49.5353 190.998 49.4636 190.591 48.9477 190.116C48.826 189.98 48.6772 189.872 48.5109 189.798C48.3446 189.723 48.1646 189.685 47.9824 189.684C47.726 189.676 47.504 189.822 47.2159 190.141L46.9704 190.411Z" fill="white"/>
<path d="M43.7973 183.205L41.8267 185.079L43.3246 186.653L45.2892 184.775L46.4681 186.008L41.5391 190.666L40.3661 189.436L42.2213 187.667L40.7234 186.093L38.8683 187.863L37.6994 186.628L42.6243 181.976L43.7973 183.205Z" fill="white"/>
<path d="M39.8351 176.039L38.5469 177.093L40.9992 180.088L42.2874 179.034L43.3018 180.278L40.861 182.277L40.4179 181.747C39.3282 181.973 38.3234 182.499 37.5173 183.267L35.9137 184.578L32.8326 180.812L36.9134 177.474L36.3675 176.813L38.8125 174.807L39.8351 176.039ZM35.0592 181.177L36.0441 182.375L36.7277 181.809C37.4583 181.135 38.3389 180.645 39.2966 180.378L37.9854 178.775L35.0592 181.177Z" fill="white"/>
<path d="M33.8033 175.57C33.9782 175.47 34.1292 175.333 34.2457 175.168C34.3621 175.003 34.4413 174.815 34.4776 174.617C34.5139 174.419 34.5065 174.215 34.456 174.019C34.4054 173.824 34.3129 173.642 34.1848 173.486C34.0327 173.242 33.8266 173.035 33.5824 172.882C33.3382 172.729 33.0622 172.633 32.7756 172.603L33.0076 171.187C33.4874 171.239 33.9489 171.4 34.3564 171.659C34.7639 171.917 35.1066 172.266 35.3581 172.678C36.2857 173.984 36.57 175.657 34.3342 177.228C32.5307 178.499 30.824 178.243 29.8299 176.778C28.7386 175.236 29.2336 173.588 30.807 172.475L31.3947 172.063L33.8033 175.57ZM30.8989 174.699C30.786 174.906 30.7333 175.141 30.7469 175.377C30.7604 175.612 30.8397 175.839 30.9756 176.032C31.1115 176.225 31.2988 176.376 31.5161 176.468C31.7334 176.56 31.9721 176.59 32.2053 176.553C32.4518 176.506 32.685 176.405 32.8879 176.258L31.4039 174.151C31.1985 174.296 31.0263 174.483 30.8989 174.699Z" fill="white"/>
<path d="M28.8082 168.407L27.3609 169.169L21.8884 158.68L23.3357 157.918L28.8082 168.407Z" fill="white"/>
<path d="M23.039 148.818L24.2935 152.299L15.5737 155.41L13.5167 149.631L15.0358 149.085L16.4902 153.157L18.2527 152.523L17.619 150.735C17.4678 150.372 17.3918 149.983 17.3958 149.591C17.3998 149.199 17.4837 148.811 17.6423 148.452C17.8009 148.093 18.031 147.771 18.3184 147.503C18.6059 147.236 18.9447 147.031 19.3142 146.899C19.6838 146.767 20.0763 146.711 20.468 146.736C20.8596 146.761 21.242 146.865 21.5921 147.042C21.9421 147.22 22.2524 147.467 22.5039 147.768C22.7555 148.069 22.9431 148.418 23.0553 148.794L23.039 148.818ZM19.1611 150.282L19.7517 151.98L22.1521 151.117L21.5573 149.425C21.501 149.268 21.4143 149.123 21.3021 148.999C21.1898 148.875 21.0543 148.775 20.9032 148.703C20.7522 148.632 20.5885 148.591 20.4216 148.583C20.2547 148.575 20.0878 148.599 19.9305 148.656C19.6127 148.769 19.3531 149.005 19.2088 149.31C19.0645 149.615 19.0474 149.965 19.1611 150.282Z" fill="white"/>
<path d="M22.0267 141.934C22.4681 141.922 22.8989 142.069 23.2414 142.348C23.5838 142.627 23.8153 143.019 23.8939 143.453L24.0713 144.09L22.6337 144.518L22.5257 144.138C22.517 144.041 22.4888 143.946 22.4427 143.86C22.3967 143.774 22.3337 143.699 22.2576 143.638C22.1815 143.577 22.0938 143.532 21.9999 143.506C21.906 143.48 21.8078 143.473 21.7111 143.485L20.8577 143.454L15.4078 147.362L14.8859 145.615L18.5484 143.146L14.1514 142.962L13.6508 141.273L22.0267 141.934Z" fill="white"/>
<path d="M20.7695 134.034L19.1385 134.373L19.9565 138.185L21.5875 137.846L21.9131 139.407L18.8396 140.065L18.6967 139.39C17.6238 139.09 16.4889 139.094 15.4179 139.4L13.3852 139.815L12.3933 135.052L17.5616 133.979L17.3864 133.133L20.4599 132.475L20.7695 134.034ZM14.1843 136.389L14.5023 137.909L15.3621 137.726C16.3251 137.468 17.3356 137.441 18.311 137.648L17.8904 135.611L14.1843 136.389Z" fill="white"/>
<path d="M18.2268 128.492L18.6484 131.719L11.9129 132.615L11.6828 130.927L14.1054 130.595L13.9277 129.074C13.8669 128.786 13.8673 128.488 13.9289 128.201C13.9904 127.913 14.1117 127.641 14.2849 127.403C14.4581 127.165 14.6793 126.966 14.9343 126.819C15.1893 126.672 15.4723 126.58 15.7651 126.549C16.0562 126.501 16.3541 126.515 16.6398 126.589C16.9254 126.663 17.1926 126.795 17.4242 126.978C17.6558 127.161 17.8467 127.39 17.9849 127.65C18.1231 127.911 18.2055 128.198 18.2268 128.492ZM15.4634 130.49L17.1272 130.27L16.9509 128.977C16.9358 128.868 16.8993 128.763 16.8436 128.668C16.7879 128.573 16.714 128.49 16.6261 128.423C16.5383 128.357 16.4382 128.308 16.3316 128.28C16.225 128.253 16.114 128.246 16.0048 128.261C15.8957 128.276 15.7906 128.313 15.6956 128.368C15.6006 128.424 15.5174 128.498 15.451 128.586C15.3845 128.674 15.336 128.774 15.3082 128.88C15.2804 128.987 15.2739 129.098 15.289 129.207L15.4634 130.49Z" fill="white"/>
<path d="M17.469 118.657L17.6036 122.1L10.8272 122.338L10.7115 118.996C10.6931 117.741 11.368 116.881 12.4987 116.839C12.794 116.819 13.0887 116.885 13.3479 117.028C13.607 117.171 13.8198 117.385 13.9609 117.645C14.0768 117.343 14.2825 117.083 14.5504 116.902C14.8183 116.72 15.1354 116.625 15.4591 116.629C15.7297 116.609 16.0014 116.648 16.2555 116.743C16.5096 116.838 16.7401 116.988 16.9311 117.18C17.1221 117.373 17.2691 117.605 17.3619 117.86C17.4548 118.115 17.4913 118.387 17.469 118.657ZM12.0082 120.634L13.4597 120.583L13.4373 119.335C13.4475 119.23 13.4346 119.124 13.3996 119.025C13.3646 118.925 13.3083 118.835 13.2346 118.76C13.161 118.684 13.0718 118.626 12.9733 118.589C12.8748 118.552 12.7694 118.537 12.6644 118.544C12.2093 118.558 11.9636 118.853 11.9818 119.391L12.0082 120.634ZM14.6493 119.2L14.6988 120.537L16.2846 120.482L16.2351 119.145C16.2378 119.036 16.2184 118.929 16.1779 118.828C16.1375 118.728 16.0769 118.636 15.9999 118.56C15.9229 118.484 15.8311 118.424 15.7302 118.385C15.6293 118.345 15.5214 118.327 15.4131 118.331C15.3049 118.334 15.1985 118.36 15.1006 118.407C15.0026 118.453 14.9152 118.519 14.8436 118.6C14.7721 118.682 14.718 118.777 14.6845 118.88C14.6511 118.983 14.6391 119.092 14.6493 119.2Z" fill="white"/>
<path d="M17.5486 111.057L13.9191 113.259L10.7701 110.926L10.8339 108.949L13.9108 111.452L17.6189 109.031L17.5486 111.057ZM17.4121 115.101L10.6489 114.859L10.7057 113.148L17.4748 113.395L17.4121 115.101Z" fill="white"/>
<path d="M19.0491 105.897C19.4645 106.049 19.8123 106.343 20.0305 106.728C20.2488 107.112 20.3233 107.562 20.2406 107.996L20.1732 108.659L18.6619 108.502L18.6982 108.116C18.7248 108.022 18.7322 107.924 18.7201 107.828C18.708 107.731 18.6766 107.639 18.6278 107.555C18.5789 107.471 18.5136 107.397 18.4358 107.339C18.358 107.281 18.2693 107.239 18.1749 107.216L17.3714 106.842L10.8677 108.527L11.0534 106.755L15.3609 105.776L11.32 104.006L11.5202 102.201L19.0491 105.897Z" fill="white"/>
<path d="M18.8879 99.5319C18.6709 100.862 17.6821 102.401 14.9734 101.96C12.2646 101.52 11.8312 99.7452 12.0522 98.4088C12.1012 97.996 12.2386 97.5985 12.4552 97.2436C12.6718 96.8887 12.9625 96.5847 13.3073 96.3524L14.2509 97.6614C14.069 97.7665 13.913 97.9112 13.7945 98.0847C13.6761 98.2583 13.5982 98.4562 13.5665 98.6639C13.5289 98.8446 13.5348 99.0316 13.5838 99.2095C13.6327 99.3874 13.7232 99.5511 13.8479 99.6871C14.2336 100.051 14.7346 100.27 15.2641 100.304C15.7808 100.439 16.3281 100.392 16.8147 100.173C16.9758 100.085 17.1138 99.9602 17.2172 99.8087C17.3206 99.6572 17.3865 99.4833 17.4094 99.3013C17.4494 99.0868 17.4374 98.8659 17.3745 98.6571C17.3116 98.4482 17.1996 98.2575 17.0478 98.1008L18.3508 97.1532C18.6083 97.4866 18.7898 97.8722 18.8825 98.2831C18.9753 98.694 18.9771 99.1202 18.8879 99.5319Z" fill="white"/>
<path d="M20.2664 92.4247L17.6177 91.8065L17.1276 93.9214L19.7722 94.5456L19.3832 96.2048L12.7828 94.6474L13.1717 92.9883L15.6643 93.5787L16.1645 91.4619L13.6678 90.8774L14.0567 89.2182L20.6613 90.7696L20.2664 92.4247Z" fill="white"/>
<path d="M23.0434 83.1392L16.6093 81.0306L17.1401 79.407L23.5701 81.5217L23.0434 83.1392ZM22.0877 86.0387L21.0779 89.12L14.6439 87.0113L15.1807 85.3919L17.5031 86.1548L17.9597 84.7169C18.0417 84.4384 18.1787 84.1793 18.3627 83.9549C18.5466 83.7304 18.7738 83.5452 19.0307 83.4101C19.2876 83.2751 19.569 83.1931 19.8582 83.1688C20.1474 83.1446 20.4386 83.1787 20.7143 83.2691C20.9901 83.3595 21.245 83.5044 21.4637 83.6951C21.6825 83.8859 21.8607 84.1186 21.9878 84.3795C22.1149 84.6404 22.1883 84.9242 22.2037 85.214C22.2191 85.5038 22.1762 85.7937 22.0774 86.0666L22.0877 86.0387ZM18.7386 86.6132L20.3341 87.1338L20.7302 85.9256C20.8 85.7146 20.7831 85.4845 20.6832 85.2859C20.5834 85.0873 20.4087 84.9364 20.1977 84.8666C19.9866 84.7968 19.7565 84.8137 19.5579 84.9136C19.3593 85.0134 19.2085 85.1881 19.1387 85.3991L18.7386 86.6132Z" fill="white"/>
<path d="M26.3121 75.1092L22.724 73.5348L24.5178 75.7128L24.1274 76.5924L21.3117 76.7699L24.8999 78.3444L24.2214 79.9021L18.0064 77.1907L18.6785 75.6549L22.6611 75.434L20.1093 72.3798L20.7774 70.85L26.9865 73.5574L26.3121 75.1092Z" fill="white"/>
<path d="M26.2359 68.7494L25.6647 69.8554L19.8226 67.3023L20.787 65.441L26.2359 68.7494ZM28.0596 71.4989L26.3538 70.6145L27.2404 68.8926L28.9522 69.7812L28.0596 71.4989Z" fill="white"/>
</g>
<defs>
<clipPath id="clip0_2_49">
<rect width="232" height="232" rx="116" fill="white"/>
</clipPath>
</defs>
</svg>
