<svg width="18" height="18" viewBox="0 0 18 18" fill="none" xmlns="http://www.w3.org/2000/svg">
<path d="M5.52272 1.22692C5.52272 1.06417 5.45807 0.90809 5.34299 0.793011C5.22791 0.677932 5.07183 0.613281 4.90909 0.613281C4.74634 0.613281 4.59026 0.677932 4.47518 0.793011C4.3601 0.90809 4.29545 1.06417 4.29545 1.22692V2.51964C3.11727 2.61374 2.3449 2.84446 1.77709 3.4131C1.20845 3.98092 0.977722 4.7541 0.882812 5.93146H17.1172C17.0223 4.75328 16.7915 3.98092 16.2229 3.4131C15.6551 2.84446 14.8819 2.61374 13.7045 2.51883V1.22692C13.7045 1.06417 13.6399 0.90809 13.5248 0.793011C13.4097 0.677932 13.2537 0.613281 13.0909 0.613281C12.9282 0.613281 12.7721 0.677932 12.657 0.793011C12.5419 0.90809 12.4773 1.06417 12.4773 1.22692V2.46483C11.9332 2.45419 11.3228 2.45419 10.6364 2.45419H7.36363C6.67718 2.45419 6.06681 2.45419 5.52272 2.46483V1.22692Z"/>
<path fill-rule="evenodd" clip-rule="evenodd" d="M0.818176 9.00009C0.818176 8.31363 0.818176 7.70327 0.828813 7.15918H17.1712C17.1818 7.70327 17.1818 8.31363 17.1818 9.00009V10.6365C17.1818 13.7218 17.1818 15.2649 16.2229 16.223C15.2648 17.1819 13.7217 17.1819 10.6364 17.1819H7.36363C4.27827 17.1819 2.73518 17.1819 1.77709 16.223C0.818176 15.2649 0.818176 13.7218 0.818176 10.6365V9.00009ZM13.0909 10.6365C13.3079 10.6365 13.516 10.5503 13.6694 10.3968C13.8229 10.2434 13.9091 10.0353 13.9091 9.81827C13.9091 9.60128 13.8229 9.39317 13.6694 9.23973C13.516 9.08629 13.3079 9.00009 13.0909 9.00009C12.8739 9.00009 12.6658 9.08629 12.5124 9.23973C12.3589 9.39317 12.2727 9.60128 12.2727 9.81827C12.2727 10.0353 12.3589 10.2434 12.5124 10.3968C12.6658 10.5503 12.8739 10.6365 13.0909 10.6365ZM13.0909 13.9092C13.3079 13.9092 13.516 13.823 13.6694 13.6695C13.8229 13.5161 13.9091 13.308 13.9091 13.091C13.9091 12.874 13.8229 12.6659 13.6694 12.5125C13.516 12.359 13.3079 12.2728 13.0909 12.2728C12.8739 12.2728 12.6658 12.359 12.5124 12.5125C12.3589 12.6659 12.2727 12.874 12.2727 13.091C12.2727 13.308 12.3589 13.5161 12.5124 13.6695C12.6658 13.823 12.8739 13.9092 13.0909 13.9092ZM9.81818 9.81827C9.81818 10.0353 9.73197 10.2434 9.57854 10.3968C9.4251 10.5503 9.21699 10.6365 8.99999 10.6365C8.783 10.6365 8.57489 10.5503 8.42145 10.3968C8.26801 10.2434 8.18181 10.0353 8.18181 9.81827C8.18181 9.60128 8.26801 9.39317 8.42145 9.23973C8.57489 9.08629 8.783 9.00009 8.99999 9.00009C9.21699 9.00009 9.4251 9.08629 9.57854 9.23973C9.73197 9.39317 9.81818 9.60128 9.81818 9.81827ZM9.81818 13.091C9.81818 13.308 9.73197 13.5161 9.57854 13.6695C9.4251 13.823 9.21699 13.9092 8.99999 13.9092C8.783 13.9092 8.57489 13.823 8.42145 13.6695C8.26801 13.5161 8.18181 13.308 8.18181 13.091C8.18181 12.874 8.26801 12.6659 8.42145 12.5125C8.57489 12.359 8.783 12.2728 8.99999 12.2728C9.21699 12.2728 9.4251 12.359 9.57854 12.5125C9.73197 12.6659 9.81818 12.874 9.81818 13.091ZM4.90909 10.6365C5.12608 10.6365 5.33419 10.5503 5.48763 10.3968C5.64107 10.2434 5.72727 10.0353 5.72727 9.81827C5.72727 9.60128 5.64107 9.39317 5.48763 9.23973C5.33419 9.08629 5.12608 9.00009 4.90909 9.00009C4.69209 9.00009 4.48398 9.08629 4.33054 9.23973C4.1771 9.39317 4.0909 9.60128 4.0909 9.81827C4.0909 10.0353 4.1771 10.2434 4.33054 10.3968C4.48398 10.5503 4.69209 10.6365 4.90909 10.6365ZM4.90909 13.9092C5.12608 13.9092 5.33419 13.823 5.48763 13.6695C5.64107 13.5161 5.72727 13.308 5.72727 13.091C5.72727 12.874 5.64107 12.6659 5.48763 12.5125C5.33419 12.359 5.12608 12.2728 4.90909 12.2728C4.69209 12.2728 4.48398 12.359 4.33054 12.5125C4.1771 12.6659 4.0909 12.874 4.0909 13.091C4.0909 13.308 4.1771 13.5161 4.33054 13.6695C4.48398 13.823 4.69209 13.9092 4.90909 13.9092Z"/>
</svg>
