<svg width="40" height="40" viewBox="0 0 40 40" fill="none" xmlns="http://www.w3.org/2000/svg">
<circle cx="20" cy="20" r="20" fill="white"/>
<path d="M29.523 16.7691V24.5234C29.523 25.314 29.2205 26.0746 28.6776 26.6493C28.1346 27.224 27.3923 27.5691 26.603 27.6138L26.4277 27.6186H13.5706C12.78 27.6186 12.0193 27.3162 11.4446 26.7732C10.87 26.2302 10.5249 25.4879 10.4801 24.6986L10.4753 24.5234V16.7691L19.6677 21.5843C19.77 21.6379 19.8837 21.6658 19.9992 21.6658C20.1146 21.6658 20.2283 21.6379 20.3306 21.5843L29.523 16.7691ZM13.5706 12.3805H26.4277C27.1949 12.3804 27.9349 12.6653 28.504 13.1798C29.073 13.6943 29.4308 14.4019 29.5077 15.1653L19.9992 20.1462L10.4906 15.1653C10.5644 14.4322 10.8973 13.7496 11.4294 13.24C11.9615 12.7304 12.6579 12.4273 13.3934 12.3853L13.5706 12.3805Z" fill="black"/>
</svg>
