<svg width="40" height="40" viewBox="0 0 40 40" xmlns="http://www.w3.org/2000/svg">
<path d="M20.0012 14.7922C17.134 14.7922 14.7941 17.132 14.7941 19.9992C14.7941 22.8664 17.134 25.2062 20.0012 25.2062C22.8683 25.2062 25.2082 22.8664 25.2082 19.9992C25.2082 17.132 22.8683 14.7922 20.0012 14.7922ZM35.6183 19.9992C35.6183 17.843 35.6379 15.7062 35.5168 13.5539C35.3957 11.0539 34.8254 8.83515 32.9973 7.00702C31.1652 5.17499 28.9504 4.60858 26.4504 4.48749C24.2941 4.3664 22.1574 4.38593 20.0051 4.38593C17.8488 4.38593 15.7121 4.3664 13.5598 4.48749C11.0598 4.60858 8.84101 5.1789 7.01288 7.00702C5.18085 8.83905 4.61444 11.0539 4.49335 13.5539C4.37226 15.7101 4.39179 17.8469 4.39179 19.9992C4.39179 22.1516 4.37226 24.2922 4.49335 26.4445C4.61444 28.9445 5.18476 31.1633 7.01288 32.9914C8.84491 34.8234 11.0598 35.3898 13.5598 35.5109C15.716 35.632 17.8527 35.6125 20.0051 35.6125C22.1613 35.6125 24.298 35.632 26.4504 35.5109C28.9504 35.3898 31.1691 34.8195 32.9973 32.9914C34.8293 31.1594 35.3957 28.9445 35.5168 26.4445C35.6418 24.2922 35.6183 22.1555 35.6183 19.9992ZM20.0012 28.0109C15.5676 28.0109 11.9894 24.4328 11.9894 19.9992C11.9894 15.5656 15.5676 11.9875 20.0012 11.9875C24.4348 11.9875 28.0129 15.5656 28.0129 19.9992C28.0129 24.4328 24.4348 28.0109 20.0012 28.0109ZM28.341 13.5305C27.3059 13.5305 26.4699 12.6945 26.4699 11.6594C26.4699 10.6242 27.3059 9.78827 28.341 9.78827C29.3762 9.78827 30.2121 10.6242 30.2121 11.6594C30.2124 11.9052 30.1642 12.1486 30.0703 12.3758C29.9764 12.6029 29.8386 12.8093 29.6648 12.9831C29.4909 13.1569 29.2846 13.2947 29.0574 13.3887C28.8303 13.4826 28.5868 13.5308 28.341 13.5305Z"/>
</svg>
