<svg width="40" height="40" viewBox="0 0 40 40" xmlns="http://www.w3.org/2000/svg">
<path fill-rule="evenodd" clip-rule="evenodd" d="M39.0833 9.91398C39.36 9.00398 39.0833 8.33398 37.7583 8.33398H33.3833C32.27 8.33398 31.7567 8.91232 31.4783 9.55065C31.4783 9.55065 29.2533 14.8773 26.1017 18.3373C25.0817 19.3407 24.6183 19.659 24.0617 19.659C23.7833 19.659 23.365 19.3407 23.365 18.429V9.91398C23.365 8.82065 23.0583 8.33398 22.1317 8.33398H15.2517C14.5567 8.33398 14.1383 8.84065 14.1383 9.32232C14.1383 10.3573 15.715 10.5973 15.8767 13.5107V19.8407C15.8767 21.229 15.6217 21.4807 15.065 21.4807C13.5817 21.4807 9.97333 16.129 7.83167 10.0057C7.41667 8.81398 6.99667 8.33398 5.87833 8.33398H1.5C0.25 8.33398 0 8.91232 0 9.55065C0 10.6873 1.48333 16.334 6.90833 23.8023C10.525 28.9023 15.6167 31.6673 20.255 31.6673C23.0367 31.6673 23.38 31.054 23.38 29.9957V26.1407C23.38 24.9123 23.6433 24.6673 24.525 24.6673C25.175 24.6673 26.2867 24.9873 28.8833 27.4457C31.85 30.3607 32.3383 31.6673 34.0083 31.6673H38.3833C39.6333 31.6673 40.26 31.054 39.9 29.8407C39.5033 28.634 38.0867 26.8823 36.2083 24.804C35.1883 23.6207 33.6583 22.3457 33.1933 21.7073C32.545 20.889 32.73 20.524 33.1933 19.7957C33.1933 19.7957 38.5267 12.419 39.0817 9.91398"/>
</svg>
