<svg width="70" height="70" viewBox="0 0 70 70" fill="none" xmlns="http://www.w3.org/2000/svg">
<circle cx="35" cy="35" r="35" fill="white"/>
<path fill-rule="evenodd" clip-rule="evenodd" d="M27.2219 43.214C27.2219 41.9643 26.2274 40.9521 24.9997 40.9521H20.5552C19.3275 40.9521 18.333 41.9643 18.333 43.214V49.9997H27.2219V43.214ZM47.2219 34.1663C47.2219 32.9166 46.2274 31.9044 44.9996 31.9044C43.6419 31.9044 41.913 31.9044 40.5552 31.9044C39.3274 31.9044 38.333 32.9166 38.333 34.1663C38.333 39.0204 38.333 49.9997 38.333 49.9997H47.2219V34.1663ZM37.2219 38.6902C37.2219 37.4404 36.2274 36.4282 34.9997 36.4282C33.6419 36.4282 31.913 36.4282 30.5552 36.4282C29.3274 36.4282 28.333 37.4404 28.333 38.6902C28.333 42.5512 28.333 49.9997 28.333 49.9997H37.2219V38.6902ZM41.6663 19.464V30.7735H43.8885V26.2497H50.5552C50.9819 26.2497 51.3719 26.0009 51.5563 25.6084C51.7419 25.2171 51.6896 24.7512 51.423 24.4119L49.7563 22.2913L51.423 20.1708C51.6896 19.8315 51.7419 19.3656 51.5563 18.9743C51.3719 18.5818 50.9819 18.333 50.5552 18.333H42.7774C42.1641 18.333 41.6663 18.8397 41.6663 19.464Z" fill="#FA3640"/>
</svg>
