<svg width="18" height="18" viewBox="0 0 18 18" xmlns="http://www.w3.org/2000/svg">
<path d="M9 1.5L9.08775 1.50525C9.25516 1.52499 9.41104 1.60056 9.53024 1.71976C9.64944 1.83896 9.72501 1.99484 9.74475 2.16225L9.75 2.25V5.25L9.75375 5.3625C9.78059 5.71963 9.93432 6.05537 10.1871 6.30902C10.44 6.56267 10.7752 6.7175 11.1322 6.7455L11.25 6.75H14.25L14.3378 6.75525C14.5052 6.77499 14.661 6.85056 14.7802 6.96976C14.8994 7.08896 14.975 7.24484 14.9948 7.41225L15 7.5V14.25C15 14.8239 14.7808 15.3761 14.387 15.7937C13.9933 16.2113 13.4549 16.4626 12.882 16.4963L12.75 16.5H5.25C4.67609 16.5 4.12386 16.2808 3.7063 15.887C3.28874 15.4933 3.03742 14.9549 3.00375 14.382L3 14.25V3.75C2.99997 3.17609 3.21924 2.62386 3.61296 2.2063C4.00668 1.78874 4.54508 1.53742 5.118 1.50375L5.25 1.5H9Z"/>
<path d="M14.25 5.25002H11.25L11.2493 2.24927L14.25 5.25002Z"/>
</svg>
