<svg width="40" height="40" viewBox="0 0 40 40" fill="none" xmlns="http://www.w3.org/2000/svg">
<circle cx="20" cy="20" r="20" fill="white"/>
<path d="M15.9728 10.8941L16.9985 10.5665C17.9585 10.2598 18.9852 10.756 19.3966 11.7255L20.2157 13.657C20.5728 14.4979 20.3747 15.4874 19.7261 16.1027L17.9233 17.8151C18.0344 18.8398 18.3785 19.8484 18.9557 20.8408C19.5045 21.8006 20.2399 22.641 21.1185 23.3122L23.2861 22.5884C24.1071 22.3151 25.0014 22.6303 25.5052 23.3703L26.6785 25.0941C27.2652 25.9551 27.1595 27.1417 26.4328 27.8713L25.6538 28.6532C24.8785 29.4313 23.7718 29.7141 22.7471 29.3941C20.3293 28.6398 18.1061 26.4008 16.0776 22.677C14.0465 18.9468 13.3296 15.7824 13.9271 13.1836C14.1785 12.0903 14.9576 11.2189 15.9747 10.8941" fill="black"/>
</svg>
