<svg width="40" height="40" viewBox="0 0 40 40" fill="none" xmlns="http://www.w3.org/2000/svg">
<circle cx="20" cy="20" r="20" fill="white"/>
<path d="M20 9.99963C16.0567 9.99963 12.8572 12.8795 12.8572 16.4282C12.8572 22.1425 20 29.9996 20 29.9996C20 29.9996 27.1429 22.1425 27.1429 16.4282C27.1429 12.8795 23.9433 9.99963 20 9.99963ZM20 19.9996C19.4349 19.9996 18.8825 19.8321 18.4127 19.5181C17.9428 19.2042 17.5766 18.7579 17.3604 18.2359C17.1441 17.7138 17.0875 17.1393 17.1978 16.5851C17.308 16.0309 17.5802 15.5218 17.9797 15.1222C18.3793 14.7226 18.8884 14.4505 19.4426 14.3402C19.9969 14.23 20.5713 14.2866 21.0934 14.5028C21.6155 14.7191 22.0617 15.0853 22.3757 15.5551C22.6896 16.025 22.8572 16.5774 22.8572 17.1425C22.8564 17.9 22.5551 18.6262 22.0194 19.1619C21.4838 19.6975 20.7575 19.9988 20 19.9996Z" fill="black"/>
</svg>
