<svg width="46" height="46" viewBox="0 0 46 46" fill="none" xmlns="http://www.w3.org/2000/svg">
<rect x="0.5" y="0.5" width="45" height="45" rx="22.5" stroke="white"/>
<path d="M33.9156 25.2897C34.2531 25.0191 34.5263 24.6721 34.7143 24.2752C34.9023 23.8783 35 23.4421 35 23C35 22.5579 34.9023 22.1217 34.7143 21.7248C34.5263 21.3279 34.2531 20.9809 33.9156 20.7103C29.5452 17.2072 24.665 14.4461 19.4576 12.5302L18.5055 12.1798C16.6859 11.5107 14.7627 12.7855 14.5163 14.7323C13.8279 20.221 13.8279 25.779 14.5163 31.2677C14.7641 33.2145 16.6859 34.4893 18.5055 33.8202L19.4576 33.4698C24.665 31.5539 29.5452 28.7928 33.9156 25.2897Z" fill="white"/>
</svg>
