<svg width="70" height="70" viewBox="0 0 70 70" fill="none" xmlns="http://www.w3.org/2000/svg">
<circle cx="35" cy="35" r="35" fill="#F6F5F3"/>
<path d="M29.9063 27.0316C29.6145 27.0783 29.3637 27.2338 29.1952 27.4671C29.0308 27.6887 28.9692 27.9609 29.0144 28.2292L30.6831 33L30.7283 32.9572C30.7283 32.9572 30.7324 32.9572 30.7324 32.9533L34 29.8622C33.2972 28.9524 32.4834 28.1281 31.5709 27.4243C31.1188 27.0744 30.5146 26.9305 29.9063 27.0316Z" fill="#FA3640"/>
<path d="M27.6252 50.0422L27.9549 50.3722C29.6487 52.0636 31.8988 53 34.2932 53C35.4884 53 36.6505 52.769 37.7261 52.3235C38.8018 51.8738 39.7908 51.2179 40.6357 50.3722L44.5343 46.4697C44.8352 46.1685 45 45.7684 45 45.3393C45 44.9103 44.8352 44.5143 44.5343 44.209L43.9821 43.6604C43.3804 43.0581 42.3336 43.0581 41.7278 43.6604L40.2195 45.1743C40.1329 45.2527 40.0299 45.2981 39.9186 45.2981C39.8073 45.2981 39.7043 45.2568 39.6178 45.1743C39.4529 45.0093 39.4529 44.7371 39.6178 44.572L42.5562 41.6307C43.1784 41.0078 43.1784 39.9971 42.5562 39.3742L42.008 38.8255C41.4063 38.2232 40.3596 38.2232 39.7538 38.8255L36.8154 41.7668C36.7371 41.8535 36.6258 41.8906 36.5145 41.8906C36.4033 41.8906 36.3002 41.8535 36.2178 41.7668C36.053 41.6018 36.053 41.3337 36.2178 41.1687L40.578 36.8041C41.2003 36.1812 41.2003 35.1664 40.578 34.5435L40.0299 33.9948C39.4076 33.3719 38.3979 33.3719 37.7756 33.9948L33.4113 38.3594C33.333 38.446 33.2217 38.4872 33.1146 38.4872C33.0074 38.4872 32.8961 38.446 32.8137 38.3594C32.6489 38.1943 32.6489 37.9262 32.8137 37.7612L37.1739 33.3966L41.1756 29.3869C41.5506 29.0156 41.7608 28.5164 41.7608 27.9884C41.7608 27.4604 41.5547 26.9612 41.1756 26.5817C40.8047 26.2104 40.306 26 39.7785 26C39.251 26 38.7523 26.2063 38.3732 26.5817L27.6211 37.3445C24.1263 40.8428 24.1263 46.5398 27.6211 50.038L27.6252 50.0422Z" fill="#FA3640"/>
<path d="M34.388 23.8963C34.4832 23.9915 34.5965 24.0323 34.7189 24.0323C34.8414 24.0323 34.9547 23.9915 35.0499 23.8963L37.911 21.0353C38.3734 20.5728 38.6273 19.9607 38.6273 19.3078C38.6273 18.6549 38.3734 18.0428 37.911 17.5758C37.4485 17.1133 36.8364 16.8594 36.1835 16.8594H36.1789C35.6439 16.8594 35.1361 17.0317 34.7189 17.3491C34.3018 17.0317 33.7895 16.8594 33.2544 16.8594C32.597 16.8594 31.9894 17.1133 31.5224 17.5758C31.0599 18.0428 30.8105 18.6503 30.8105 19.3078C30.8105 19.9652 31.0645 20.5728 31.5269 21.0353L34.388 23.8963Z" fill="#FA3640"/>
</svg>
