<svg width="46" height="54" viewBox="0 0 46 54" fill="none" xmlns="http://www.w3.org/2000/svg">
<g clip-path="url(#clip0_2_531)">
<path d="M15.0245 2.12503C16.2226 2.12453 17.3938 2.47762 18.3902 3.13963C19.3865 3.80164 20.1632 4.74283 20.622 5.84415C21.0808 6.94548 21.201 8.15746 20.9675 9.3268C20.7341 10.4961 20.1573 11.5703 19.3103 12.4134C18.4633 13.2566 17.384 13.8308 16.209 14.0635C15.034 14.2961 13.8161 14.1768 12.7093 13.7206C11.6024 13.2643 10.6564 12.4917 9.99088 11.5004C9.32536 10.509 8.97022 9.34356 8.97039 8.15135C8.97216 6.55347 9.61087 5.02155 10.7463 3.89175C11.8818 2.76196 13.4213 2.12657 15.027 2.12503H15.0245ZM15.027 3.84294e-07C13.9511 -0.00032836 12.8856 0.210264 11.8915 0.61975C10.8973 1.02924 9.994 1.6296 9.23304 2.38654C8.47208 3.14349 7.86841 4.04219 7.45652 5.03132C7.04462 6.02046 6.83256 7.08065 6.83245 8.15135C6.8215 9.2288 7.02529 10.2977 7.43205 11.2963C7.8388 12.2949 8.44045 13.2033 9.20221 13.9691C9.96396 14.7348 10.8707 15.3427 11.87 15.7576C12.8693 16.1724 13.9413 16.386 15.0241 16.386C16.1069 16.386 17.1789 16.1724 18.1782 15.7576C19.1775 15.3427 20.0842 14.7348 20.846 13.9691C21.6077 13.2033 22.2094 12.2949 22.6161 11.2963C23.0229 10.2977 23.2267 9.2288 23.2157 8.15135C23.2157 5.98948 22.3527 3.91615 20.8166 2.38748C19.2804 0.858801 17.197 3.84294e-07 15.0245 3.84294e-07H15.027Z" fill="#FA3640"/>
<path d="M6.22566 6.37472C6.22807 6.75044 6.16129 7.12342 6.02863 7.4752C5.89979 7.81182 5.71123 8.12268 5.47193 8.39295C5.70975 8.67145 5.89802 8.98832 6.02863 9.3299C6.16135 9.68166 6.22813 10.0546 6.22566 10.4304V13.202C6.22753 13.6167 6.14363 14.0274 5.97917 14.4084C5.66771 15.1531 5.07313 15.7451 4.32499 16.0554C3.94189 16.2184 3.5293 16.3016 3.11266 16.2998H0.178234C0.154191 16.3029 0.129757 16.3005 0.106792 16.2928C0.0838275 16.2851 0.0629382 16.2722 0.0457156 16.2553C0.028493 16.2383 0.0153915 16.2176 0.00740912 16.1948C-0.000573216 16.1721 -0.0032258 16.1478 -0.000346556 16.1238V0.179025C-0.00385086 0.154657 -0.00160423 0.129812 0.00621533 0.106458C0.0140349 0.0831041 0.0272125 0.0618832 0.044704 0.0444768C0.0621955 0.0270705 0.0835202 0.013957 0.106988 0.00617556C0.130457 -0.00160593 0.155424 -0.00384162 0.179911 -0.000354377H3.11433C3.53041 -0.00184949 3.9424 0.0813403 4.32499 0.244103C5.07313 0.554425 5.66771 1.14641 5.97917 1.89106C6.14363 2.27212 6.22753 2.68278 6.22566 3.09749V6.37472ZM4.07934 3.09749C4.08177 2.96956 4.0573 2.84254 4.00749 2.72457C3.95767 2.60661 3.88362 2.50031 3.79009 2.41251C3.69967 2.32306 3.5922 2.25248 3.474 2.20491C3.3558 2.15735 3.22924 2.13375 3.10176 2.13552H2.32791C2.30333 2.13192 2.27824 2.13407 2.25464 2.14178C2.23103 2.1495 2.20956 2.16257 2.19191 2.17998C2.17426 2.19738 2.16092 2.21863 2.15295 2.24204C2.14497 2.26546 2.14259 2.2904 2.14597 2.3149V7.15398C2.14259 7.17847 2.14497 7.20342 2.15295 7.22683C2.16092 7.25025 2.17426 7.2715 2.19191 7.2889C2.20956 7.3063 2.23103 7.31938 2.25464 7.3271C2.27824 7.33481 2.30333 7.33696 2.32791 7.33336H3.10176C3.22885 7.33498 3.35498 7.31131 3.47276 7.26374C3.59053 7.21617 3.69756 7.14567 3.78757 7.05637C3.88129 6.96888 3.95548 6.86277 4.00531 6.7449C4.05514 6.62704 4.07951 6.50006 4.07682 6.37222L4.07934 3.09749ZM4.07934 10.4337C4.08202 10.3059 4.05765 10.1789 4.00782 10.061C3.95799 9.94316 3.88381 9.83705 3.79009 9.74957C3.69982 9.65985 3.5924 9.58904 3.47418 9.54132C3.35596 9.4936 3.22932 9.46994 3.10176 9.47174H2.32791C2.30333 9.46814 2.27824 9.47028 2.25464 9.478C2.23103 9.48572 2.20956 9.49879 2.19191 9.51619C2.17426 9.5336 2.16092 9.55485 2.15295 9.57826C2.14497 9.60168 2.14259 9.62662 2.14597 9.65112V13.9896C2.14259 14.0141 2.14497 14.039 2.15295 14.0625C2.16092 14.0859 2.17426 14.1071 2.19191 14.1245C2.20956 14.1419 2.23103 14.155 2.25464 14.1627C2.27824 14.1704 2.30333 14.1726 2.32791 14.169H3.10176C3.22882 14.1704 3.3549 14.1467 3.47265 14.0991C3.59039 14.0515 3.69745 13.9811 3.78757 13.892C3.88111 13.8042 3.95516 13.6979 4.00497 13.5799C4.05478 13.462 4.07926 13.3349 4.07682 13.207L4.07934 10.4337Z" fill="white"/>
<path d="M24.1604 -0.000354377H26.0116C26.0519 -0.0018888 26.0916 0.0101061 26.1243 0.033707C26.157 0.0573079 26.1808 0.0911476 26.1918 0.1298L28.043 8.39629V0.179025C28.0396 0.154737 28.0418 0.129977 28.0496 0.106696C28.0574 0.0834141 28.0705 0.0622461 28.0878 0.0448579C28.1052 0.0274697 28.1265 0.014336 28.1498 0.00649046C28.1732 -0.00135504 28.198 -0.00369813 28.2225 -0.000354377H30.0141C30.0385 -0.0037333 30.0634 -0.00140723 30.0867 0.00643921C30.11 0.0142856 30.1312 0.0274364 30.1486 0.0448477C30.1659 0.062259 30.1789 0.0834513 30.1866 0.106743C30.1942 0.130034 30.1963 0.154783 30.1927 0.179025V16.1238C30.1963 16.148 30.1942 16.1728 30.1866 16.1961C30.1789 16.2194 30.1659 16.2406 30.1486 16.258C30.1312 16.2754 30.11 16.2885 30.0867 16.2964C30.0634 16.3042 30.0385 16.3066 30.0141 16.3032H28.1696C28.1289 16.3079 28.0878 16.2971 28.0547 16.273C28.0215 16.2489 27.9988 16.2132 27.9911 16.173L26.1432 8.151L26.1264 16.1238C26.1299 16.1482 26.1277 16.173 26.1199 16.1964C26.1121 16.2197 26.0989 16.2409 26.0814 16.2584C26.0639 16.2758 26.0426 16.2889 26.0191 16.2967C25.9956 16.3044 25.9707 16.3067 25.9462 16.3032H24.1604C24.1359 16.3067 24.1109 16.3044 24.0875 16.2967C24.064 16.2889 24.0427 16.2758 24.0252 16.2584C24.0077 16.2409 23.9945 16.2197 23.9867 16.1964C23.9789 16.173 23.9766 16.1482 23.9801 16.1238V0.179025C23.9766 0.154657 23.9789 0.129812 23.9867 0.106458C23.9945 0.0831041 24.0077 0.0618832 24.0252 0.0444768C24.0427 0.0270705 24.064 0.013957 24.0875 0.00617556C24.1109 -0.00160593 24.1359 -0.00384162 24.1604 -0.000354377Z" fill="white"/>
<path d="M38.3462 16.0424C38.3564 16.0919 38.3505 16.1433 38.3295 16.1893L38.2641 16.2727C38.2181 16.2949 38.1676 16.306 38.1165 16.3052H36.4456C36.3945 16.306 36.344 16.2949 36.298 16.2727L36.2326 16.2235C36.2103 16.1778 36.1991 16.1275 36.1999 16.0766L35.774 12.3105C35.774 12.2671 35.7463 12.2454 35.6902 12.2454H34.5944C34.5733 12.2452 34.5527 12.2513 34.5353 12.2629C34.5178 12.2745 34.5042 12.2911 34.4963 12.3105L34.0704 16.0766C34.0695 16.102 34.0638 16.1269 34.0536 16.1501C34.0427 16.1776 34.0318 16.2018 34.0209 16.2235L33.9723 16.2727C33.9249 16.2906 33.8752 16.3015 33.8247 16.3052H32.137C32.0865 16.3016 32.0368 16.2906 31.9894 16.2727L31.924 16.1893C31.9094 16.1418 31.9037 16.092 31.9073 16.0424L33.6445 0.228645C33.6407 0.175756 33.6582 0.123549 33.6931 0.0834728L33.7425 0.0342477C33.7898 0.0157463 33.8395 0.00422183 33.8901 4.03437e-05H36.3802C36.4312 -0.000760965 36.4818 0.0103845 36.5277 0.032579L36.5931 0.0818042C36.6047 0.104997 36.6129 0.129721 36.6174 0.155225C36.6228 0.180633 36.6312 0.205292 36.6426 0.228645L38.3462 16.0424ZM35.4646 10.1079C35.5082 10.1079 35.53 10.0812 35.53 10.0245L35.1527 6.47023C35.1527 6.44854 35.1502 6.43769 35.1452 6.43769C35.1393 6.43769 35.1368 6.44854 35.1368 6.47023L34.7436 10.0245C34.7415 10.0359 34.7422 10.0476 34.7457 10.0587C34.7492 10.0698 34.7553 10.0798 34.7636 10.088C34.7718 10.0962 34.7819 10.1023 34.793 10.1058C34.8042 10.1092 34.816 10.11 34.8274 10.1079H35.4646Z" fill="white"/>
<path d="M0.179072 35.1478C0.154649 35.1511 0.129779 35.1488 0.10642 35.1409C0.083061 35.1331 0.0618508 35.1199 0.0444588 35.1026C0.0270669 35.0852 0.0139679 35.064 0.00619299 35.0407C-0.0015819 35.0174 -0.00382049 34.9927 -0.000346556 34.9684V19.0228C-0.00385086 18.9984 -0.00160423 18.9736 0.00621532 18.9502C0.0140349 18.9269 0.0272125 18.9056 0.044704 18.8882C0.0621954 18.8708 0.0835201 18.8577 0.106988 18.8499C0.130457 18.8421 0.155424 18.8399 0.179911 18.8434H3.11433C3.53102 18.8412 3.94369 18.9245 4.32667 19.0879C5.07522 19.3976 5.67 19.9897 5.98084 20.7348C6.14502 21.1165 6.22836 21.5277 6.22566 21.9429V27.2576C6.22651 27.67 6.14084 28.0781 5.97413 28.4556C5.65833 29.1961 5.06362 29.7841 4.31744 30.0934C3.9331 30.2562 3.51946 30.3394 3.10176 30.3379H2.32707C2.30255 30.3344 2.27756 30.3367 2.25407 30.3445C2.23057 30.3522 2.20921 30.3653 2.19166 30.3827C2.17411 30.4001 2.16085 30.4213 2.15292 30.4446C2.145 30.468 2.14262 30.4928 2.14597 30.5173V34.9684C2.1496 34.9926 2.14749 35.0174 2.13982 35.0407C2.13216 35.064 2.11914 35.0851 2.10181 35.1026C2.08447 35.12 2.0633 35.1331 2.03997 35.141C2.01664 35.1488 1.99179 35.1511 1.96739 35.1478H0.179072ZM3.10176 28.2003C3.2303 28.2035 3.35814 28.1805 3.47749 28.1329C3.59683 28.0853 3.70519 28.014 3.79596 27.9233C3.88626 27.8372 3.95779 27.7335 4.00611 27.6187C4.05443 27.5038 4.0785 27.3804 4.07682 27.2559V21.9429C4.07972 21.8157 4.05629 21.6892 4.00797 21.5714C3.95965 21.4535 3.88748 21.3468 3.79596 21.2579C3.70526 21.1671 3.59694 21.0957 3.47759 21.0479C3.35824 21.0002 3.23036 20.9771 3.10176 20.9801H2.32791C2.30333 20.9765 2.27824 20.9786 2.25464 20.9864C2.23103 20.9941 2.20956 21.0072 2.19191 21.0246C2.17426 21.042 2.16092 21.0632 2.15295 21.0866C2.14497 21.11 2.14259 21.135 2.14597 21.1595V28.0226C2.14287 28.047 2.14547 28.0717 2.15357 28.0949C2.16167 28.1181 2.17505 28.1392 2.19267 28.1564C2.21028 28.1736 2.23165 28.1865 2.25511 28.1941C2.27857 28.2018 2.30348 28.2039 2.32791 28.2003H3.10176Z" fill="white"/>
<path d="M14.0006 20.9801H10.2998C10.2754 20.9766 10.2504 20.9788 10.2269 20.9866C10.2035 20.9944 10.1821 21.0075 10.1646 21.0249C10.1471 21.0423 10.134 21.0636 10.1262 21.0869C10.1183 21.1103 10.1161 21.1351 10.1196 21.1595V25.7566C10.1162 25.7811 10.1186 25.806 10.1266 25.8295C10.1345 25.8529 10.1479 25.8741 10.1655 25.8915C10.1832 25.9089 10.2046 25.922 10.2283 25.9297C10.2519 25.9374 10.2769 25.9396 10.3015 25.936H11.7268C11.751 25.933 11.7756 25.9355 11.7987 25.9434C11.8218 25.9514 11.8427 25.9645 11.8599 25.9817C11.877 25.999 11.89 26.0199 11.8978 26.0429C11.9055 26.066 11.9078 26.0905 11.9046 26.1145V27.8941C11.9078 27.9185 11.9054 27.9434 11.8973 27.9667C11.8893 27.9899 11.8759 28.011 11.8583 28.0283C11.8406 28.0455 11.8191 28.0584 11.7956 28.066C11.7721 28.0736 11.7471 28.0756 11.7226 28.0719H10.2973C10.2727 28.0683 10.2477 28.0704 10.2241 28.0781C10.2005 28.0858 10.179 28.0989 10.1613 28.1163C10.1437 28.1337 10.1303 28.155 10.1224 28.1784C10.1144 28.2018 10.112 28.2267 10.1154 28.2512V32.8325C10.1119 32.8569 10.1141 32.8817 10.122 32.9051C10.1298 32.9284 10.143 32.9497 10.1604 32.9671C10.1779 32.9845 10.1993 32.9976 10.2227 33.0054C10.2462 33.0131 10.2712 33.0154 10.2957 33.0119H14.0006C14.0251 33.0084 14.05 33.0106 14.0735 33.0184C14.097 33.0262 14.1183 33.0393 14.1358 33.0567C14.1533 33.0741 14.1664 33.0954 14.1743 33.1187C14.1821 33.1421 14.1843 33.1669 14.1808 33.1913V34.9684C14.1843 34.9928 14.1821 35.0176 14.1743 35.041C14.1664 35.0643 14.1533 35.0855 14.1358 35.1029C14.1183 35.1203 14.097 35.1335 14.0735 35.1412C14.05 35.149 14.0251 35.1513 14.0006 35.1478H8.15269C8.12826 35.1511 8.10339 35.1488 8.08004 35.1409C8.05668 35.1331 8.03547 35.1199 8.01807 35.1026C8.00068 35.0852 7.98758 35.064 7.97981 35.0407C7.97203 35.0174 7.9698 34.9927 7.97327 34.9684V19.0228C7.9698 18.9985 7.97203 18.9737 7.97981 18.9504C7.98758 18.9272 8.00068 18.906 8.01807 18.8886C8.03547 18.8712 8.05668 18.8581 8.08004 18.8502C8.10339 18.8424 8.12826 18.8401 8.15269 18.8434H14.0006C14.0251 18.8399 14.05 18.8421 14.0735 18.8499C14.097 18.8577 14.1183 18.8708 14.1358 18.8882C14.1533 18.9056 14.1664 18.9269 14.1743 18.9502C14.1821 18.9736 14.1843 18.9984 14.1808 19.0228V20.7999C14.1845 20.8243 14.1823 20.8493 14.1746 20.8727C14.1668 20.8962 14.1537 20.9175 14.1362 20.935C14.1187 20.9525 14.0973 20.9657 14.0737 20.9735C14.0502 20.9814 14.0251 20.9836 14.0006 20.9801Z" fill="white"/>
<path d="M19.0038 35.1465C18.5898 35.1487 18.1798 35.0655 17.7998 34.9021C17.4316 34.744 17.0957 34.5201 16.8088 34.2413C16.5178 33.9544 16.2868 33.6128 16.1294 33.2365C15.9719 32.8601 15.8911 32.4564 15.8916 32.0487V21.9417C15.8913 21.5339 15.9722 21.1301 16.1297 20.7536C16.2871 20.3771 16.5179 20.0354 16.8088 19.7482C17.0955 19.4694 17.4315 19.2457 17.7998 19.0883C18.1797 18.9244 18.5897 18.8412 19.0038 18.8438C19.4205 18.8417 19.8331 18.9249 20.2161 19.0883C20.9651 19.3976 21.5603 19.9898 21.8711 20.7352C22.035 21.1164 22.1186 21.527 22.1168 21.9417V32.0487C22.1185 32.4633 22.0349 32.8739 21.8711 33.2551C21.5596 34 20.9647 34.5921 20.2161 34.9021C19.833 35.065 19.4204 35.1482 19.0038 35.1465ZM18.9962 20.9788C18.8695 20.9771 18.7437 21.0015 18.627 21.0507C18.5102 21.0998 18.405 21.1725 18.318 21.2642C18.2278 21.3524 18.1565 21.4578 18.1082 21.574C18.06 21.6903 18.0358 21.815 18.0371 21.9408V32.0487C18.0358 32.1745 18.06 32.2992 18.1082 32.4155C18.1565 32.5317 18.2278 32.6371 18.318 32.7253C18.405 32.817 18.5102 32.8897 18.627 32.9388C18.7437 32.9879 18.8695 33.0124 18.9962 33.0106C19.1239 33.0119 19.2505 32.9872 19.3682 32.9382C19.486 32.8891 19.5925 32.8167 19.6812 32.7253C19.7737 32.6385 19.8471 32.5335 19.8969 32.4171C19.9467 32.3006 19.9717 32.1752 19.9705 32.0487V21.9417C19.9717 21.8151 19.9467 21.6897 19.8969 21.5733C19.8471 21.4568 19.7737 21.3519 19.6812 21.265C19.5926 21.1735 19.4861 21.1009 19.3683 21.0517C19.2506 21.0025 19.1239 20.9777 18.9962 20.9788Z" fill="white"/>
<path d="M24.1595 35.1478C24.1351 35.1511 24.1102 35.1488 24.0869 35.1409C24.0635 35.1331 24.0423 35.1199 24.0249 35.1026C24.0075 35.0852 23.9944 35.064 23.9867 35.0407C23.9789 35.0174 23.9766 34.9927 23.9801 34.9684V19.0228C23.9766 18.9984 23.9789 18.9736 23.9867 18.9502C23.9945 18.9269 24.0077 18.9056 24.0252 18.8882C24.0427 18.8708 24.064 18.8577 24.0875 18.8499C24.1109 18.8421 24.1359 18.8399 24.1604 18.8434H27.0948C27.5115 18.8412 27.9242 18.9245 28.3071 19.0879C29.0557 19.3978 29.6506 19.9899 29.9622 20.7348C30.1257 21.1167 30.2087 21.5278 30.2061 21.9429V27.2576C30.207 27.67 30.1213 28.0781 29.9546 28.4556C29.638 29.1972 29.0416 29.7856 28.2937 30.0943C27.9098 30.2565 27.4968 30.3394 27.0797 30.3379H26.3067C26.2822 30.3344 26.2572 30.3367 26.2337 30.3445C26.2102 30.3522 26.1888 30.3653 26.1713 30.3827C26.1537 30.4001 26.1405 30.4213 26.1326 30.4446C26.1246 30.468 26.1222 30.4928 26.1256 30.5173V34.9684C26.1292 34.9926 26.1271 35.0174 26.1195 35.0407C26.1118 35.064 26.0988 35.0851 26.0814 35.1026C26.0641 35.12 26.0429 35.1331 26.0196 35.141C25.9963 35.1488 25.9714 35.1511 25.947 35.1478H24.1595ZM27.0847 28.2003C27.2133 28.2036 27.3412 28.1807 27.4605 28.133C27.5799 28.0854 27.6882 28.0141 27.7789 27.9233C27.8692 27.8372 27.9408 27.7335 27.9891 27.6187C28.0374 27.5038 28.0615 27.3804 28.0598 27.2559V21.9429C28.0627 21.8157 28.0393 21.6892 27.991 21.5714C27.9426 21.4535 27.8705 21.3468 27.7789 21.2579C27.6882 21.1672 27.5799 21.0959 27.4605 21.0482C27.3412 21.0006 27.2133 20.9777 27.0847 20.9809H26.3084C26.2838 20.9773 26.2587 20.9795 26.2351 20.9872C26.2115 20.9949 26.19 21.008 26.1724 21.0254C26.1547 21.0428 26.1414 21.064 26.1334 21.0875C26.1254 21.1109 26.1231 21.1358 26.1264 21.1603V28.0235C26.1235 28.0478 26.1262 28.0724 26.1344 28.0955C26.1425 28.1186 26.1559 28.1395 26.1735 28.1566C26.1911 28.1737 26.2124 28.1866 26.2358 28.1942C26.2592 28.2017 26.284 28.2039 26.3084 28.2003H27.0847Z" fill="white"/>
<path d="M34.1874 19.0213V32.8311C34.1839 32.8555 34.1862 32.8803 34.194 32.9037C34.2018 32.927 34.215 32.9482 34.2325 32.9656C34.25 32.983 34.2713 32.9962 34.2948 33.0039C34.3182 33.0117 34.3432 33.014 34.3677 33.0105H38.0868C38.1113 33.007 38.1363 33.0092 38.1598 33.017C38.1832 33.0248 38.2046 33.0379 38.2221 33.0553C38.2395 33.0727 38.2527 33.0939 38.2605 33.1173C38.2684 33.1406 38.2706 33.1655 38.2671 33.1899V34.967C38.2706 34.9913 38.2684 35.0162 38.2605 35.0395C38.2527 35.0629 38.2395 35.0841 38.2221 35.1015C38.2046 35.1189 38.1832 35.132 38.1598 35.1398C38.1363 35.1476 38.1113 35.1498 38.0868 35.1463H32.218C32.1935 35.1498 32.1685 35.1476 32.1451 35.1398C32.1216 35.132 32.1003 35.1189 32.0828 35.1015C32.0653 35.0841 32.0521 35.0629 32.0443 35.0395C32.0365 35.0162 32.0342 34.9913 32.0377 34.967V19.0213C32.0342 18.997 32.0365 18.9721 32.0443 18.9488C32.0521 18.9254 32.0653 18.9042 32.0828 18.8868C32.1003 18.8694 32.1216 18.8563 32.1451 18.8485C32.1685 18.8407 32.1935 18.8385 32.218 18.842H34.0038C34.0285 18.8379 34.0539 18.8397 34.0778 18.8472C34.1017 18.8547 34.1235 18.8678 34.1414 18.8852C34.1593 18.9027 34.1728 18.9242 34.1808 18.9478C34.1888 18.9715 34.1911 18.9967 34.1874 19.0213Z" fill="white"/>
<path d="M45.8197 20.9801H42.1174C42.0929 20.9766 42.0679 20.9788 42.0444 20.9866C42.021 20.9944 41.9996 21.0075 41.9821 21.0249C41.9647 21.0423 41.9515 21.0636 41.9437 21.0869C41.9358 21.1103 41.9336 21.1351 41.9371 21.1595V25.7566C41.9337 25.7811 41.9361 25.806 41.9441 25.8295C41.952 25.8529 41.9654 25.8741 41.983 25.8915C42.0007 25.9089 42.0222 25.922 42.0458 25.9297C42.0694 25.9374 42.0944 25.9396 42.119 25.936H43.5443C43.5686 25.933 43.5932 25.9355 43.6163 25.9435C43.6394 25.9514 43.6603 25.9645 43.6776 25.9817C43.6948 25.9989 43.7079 26.0199 43.7157 26.0429C43.7236 26.0659 43.726 26.0904 43.7229 26.1145V27.8941C43.7262 27.9185 43.7237 27.9434 43.7157 27.9667C43.7076 27.9899 43.6942 28.011 43.6766 28.0283C43.6589 28.0455 43.6375 28.0584 43.6139 28.066C43.5904 28.0736 43.5654 28.0756 43.541 28.0719H42.1157C42.0911 28.0683 42.066 28.0704 42.0424 28.0781C42.0188 28.0858 41.9973 28.0989 41.9797 28.1163C41.962 28.1337 41.9487 28.155 41.9407 28.1784C41.9327 28.2018 41.9304 28.2267 41.9337 28.2512V32.8325C41.9302 32.8569 41.9325 32.8817 41.9403 32.9051C41.9481 32.9284 41.9613 32.9497 41.9788 32.9671C41.9963 32.9845 42.0176 32.9976 42.0411 33.0054C42.0645 33.0131 42.0895 33.0154 42.114 33.0119H45.8164C45.8409 33.0084 45.8658 33.0106 45.8893 33.0184C45.9128 33.0262 45.9341 33.0393 45.9516 33.0567C45.9691 33.0741 45.9823 33.0954 45.9901 33.1187C45.9979 33.1421 46.0001 33.1669 45.9966 33.1913V34.9684C46.0001 34.9928 45.9979 35.0176 45.9901 35.041C45.9823 35.0643 45.9691 35.0855 45.9516 35.1029C45.9341 35.1203 45.9128 35.1335 45.8893 35.1412C45.8658 35.149 45.8409 35.1513 45.8164 35.1478H39.9694C39.945 35.1511 39.9201 35.1488 39.8968 35.141C39.8735 35.1331 39.8523 35.12 39.835 35.1026C39.8176 35.0852 39.8046 35.064 39.7969 35.0407C39.7893 35.0174 39.7872 34.9926 39.7908 34.9684V19.0228C39.7872 18.9985 39.7893 18.9738 39.7969 18.9505C39.8046 18.9272 39.8176 18.906 39.835 18.8886C39.8523 18.8712 39.8735 18.858 39.8968 18.8502C39.9201 18.8423 39.945 18.84 39.9694 18.8434H45.8197C45.8442 18.8399 45.8692 18.8421 45.8927 18.8499C45.9161 18.8577 45.9375 18.8708 45.9549 18.8882C45.9724 18.9056 45.9856 18.9269 45.9934 18.9502C46.0013 18.9736 46.0035 18.9984 46 19.0228V20.7999C46.0036 20.8243 46.0015 20.8493 45.9938 20.8727C45.986 20.8962 45.9728 20.9175 45.9553 20.935C45.9378 20.9525 45.9164 20.9657 45.8929 20.9735C45.8694 20.9814 45.8443 20.9836 45.8197 20.9801Z" fill="white"/>
<path d="M6.22604 50.5664V50.8926C6.22897 51.3247 6.13563 51.7522 5.95272 52.1441C5.77776 52.5227 5.53322 52.8653 5.23169 53.1545C4.92933 53.4433 4.57064 53.6673 4.17781 53.8127C3.77042 53.9656 3.33407 54.0269 2.90008 53.9921C2.10181 53.9338 1.35805 53.5673 0.827537 52.9709C0.567983 52.678 0.362743 52.3415 0.221369 51.9772C0.0733724 51.6003 -0.00172428 51.1989 3.00411e-05 50.7942V40.8807C-0.00161865 40.4763 0.0734762 40.0752 0.221369 39.6985C0.362655 39.3339 0.567899 38.9971 0.827537 38.704C1.35908 38.1092 2.10244 37.7439 2.90008 37.6852C3.33407 37.6505 3.77042 37.7117 4.17781 37.8646C4.57168 38.0102 4.93126 38.2348 5.2342 38.5246C5.53518 38.8146 5.77889 39.1581 5.95272 39.5374C6.13417 39.928 6.22664 40.3537 6.22352 40.7839V41.665C6.22699 41.6893 6.22476 41.714 6.21698 41.7373C6.20921 41.7606 6.19611 41.7818 6.17872 41.7991C6.16132 41.8165 6.14011 41.8297 6.11675 41.8375C6.09339 41.8454 6.06852 41.8477 6.0441 41.8444H4.2583C4.2339 41.8477 4.20905 41.8454 4.18572 41.8376C4.16239 41.8297 4.14121 41.8166 4.12388 41.7992C4.10655 41.7817 4.09353 41.7605 4.08586 41.7373C4.0782 41.714 4.07609 41.6892 4.07972 41.665V40.8173C4.08065 40.5925 4.00499 40.3739 3.86508 40.1974C3.72577 40.0157 3.52659 39.8887 3.30251 39.8386C3.16038 39.8091 3.01329 39.8129 2.87288 39.8497C2.73247 39.8865 2.60257 39.9552 2.49345 40.0506C2.38341 40.1385 2.29496 40.2503 2.23481 40.3774C2.17467 40.5044 2.14442 40.6435 2.14635 40.7839V50.8601C2.14558 51.0839 2.22127 51.3013 2.36098 51.4766C2.49979 51.6585 2.69878 51.7856 2.92271 51.8354C3.06498 51.8649 3.2122 51.8611 3.35274 51.8243C3.49329 51.7876 3.62333 51.7188 3.73262 51.6235C3.84232 51.5358 3.93057 51.4244 3.9907 51.2978C4.05083 51.1712 4.08127 51.0326 4.07972 50.8926V47.2216H3.29581C3.27116 47.2253 3.24598 47.2233 3.22227 47.2156C3.19855 47.208 3.17696 47.1949 3.15921 47.1775C3.14146 47.1601 3.12804 47.1388 3.12003 47.1153C3.11201 47.0918 3.10962 47.0668 3.11303 47.0422V45.2651C3.10953 45.2407 3.11178 45.2159 3.1196 45.1925C3.12741 45.1692 3.14059 45.1479 3.15808 45.1305C3.17558 45.1131 3.1969 45.1 3.22037 45.0922C3.24384 45.0845 3.2688 45.0822 3.29329 45.0857H6.04578C6.07027 45.0822 6.09523 45.0845 6.1187 45.0922C6.14217 45.1 6.16349 45.1131 6.18099 45.1305C6.19848 45.1479 6.21165 45.1692 6.21947 45.1925C6.22729 45.2159 6.22954 45.2407 6.22604 45.2651V50.5664Z" fill="white"/>
<path d="M8.13804 37.6871H11.0725C11.4891 37.685 11.9018 37.7682 12.2848 37.9316C13.0331 38.2413 13.6278 38.8331 13.939 39.5777C14.1031 39.9589 14.1867 40.3695 14.1846 40.7842V44.8273C14.1874 45.1919 14.1237 45.554 13.9968 45.8961C13.8738 46.2244 13.6989 46.5311 13.4787 46.8046C13.471 46.8103 13.4649 46.8177 13.4606 46.8261C13.4563 46.8346 13.4541 46.844 13.4541 46.8534C13.4541 46.8629 13.4563 46.8723 13.4606 46.8807C13.4649 46.8892 13.471 46.8966 13.4787 46.9023C13.6976 47.1745 13.8719 47.4795 13.9951 47.8058C14.122 48.1476 14.1857 48.5094 14.1829 48.8738V53.813C14.1866 53.8373 14.1845 53.8621 14.1768 53.8855C14.1691 53.9088 14.156 53.9301 14.1385 53.9475C14.1211 53.965 14.0998 53.9781 14.0764 53.9859C14.0529 53.9936 14.028 53.9959 14.0035 53.9923H12.2169C12.1924 53.9959 12.1675 53.9936 12.144 53.9859C12.1206 53.9781 12.0993 53.965 12.0819 53.9475C12.0644 53.9301 12.0513 53.9088 12.0436 53.8855C12.0359 53.8621 12.0338 53.8373 12.0375 53.813V48.8738C12.039 48.7485 12.014 48.6244 11.9642 48.5094C11.9144 48.3944 11.8408 48.2911 11.7482 48.2063C11.6582 48.1169 11.5512 48.0463 11.4335 47.9985C11.3157 47.9508 11.1895 47.927 11.0624 47.9285H10.286C10.2615 47.9249 10.2364 47.927 10.2128 47.9347C10.1892 47.9425 10.1677 47.9555 10.15 47.9729C10.1324 47.9903 10.119 48.0116 10.1111 48.035C10.1031 48.0584 10.1007 48.0834 10.1041 48.1079V53.813C10.1078 53.8373 10.1056 53.8621 10.0979 53.8855C10.0902 53.9088 10.0771 53.9301 10.0597 53.9475C10.0423 53.965 10.021 53.9781 9.99753 53.9859C9.97408 53.9936 9.94914 53.9959 9.92468 53.9923H8.13636C8.11197 53.9957 8.08712 53.9934 8.06378 53.9855C8.04045 53.9777 8.01928 53.9646 8.00194 53.9471C7.98461 53.9297 7.97159 53.9085 7.96393 53.8852C7.95626 53.8619 7.95416 53.8372 7.95778 53.813V37.8665C7.95427 37.8422 7.95652 37.8173 7.96434 37.794C7.97216 37.7706 7.98534 37.7494 8.00283 37.732C8.02032 37.7146 8.04165 37.7015 8.06511 37.6937C8.08858 37.6859 8.11355 37.6837 8.13804 37.6871ZM10.1041 45.6132C10.1006 45.6378 10.1028 45.6628 10.1108 45.6863C10.1187 45.7099 10.132 45.7312 10.1496 45.7487C10.1673 45.7662 10.1888 45.7794 10.2125 45.7871C10.2362 45.7949 10.2614 45.7971 10.286 45.7934H11.0666C11.1938 45.795 11.3201 45.7711 11.4379 45.7232C11.5557 45.6754 11.6626 45.6045 11.7524 45.5148C11.8448 45.4298 11.9182 45.3265 11.968 45.2115C12.0178 45.0966 12.0429 44.9725 12.0417 44.8473V40.7925C12.0442 40.6644 12.0198 40.5372 11.97 40.4191C11.9202 40.301 11.846 40.1946 11.7524 40.1067C11.6624 40.0173 11.5554 39.9466 11.4377 39.8989C11.3199 39.8512 11.1937 39.8274 11.0666 39.8289H10.1041V45.6132Z" fill="white"/>
<path d="M19.0038 53.9905C18.5897 53.9932 18.1797 53.9099 17.7998 53.7461C17.4315 53.5886 17.0955 53.3649 16.8088 53.0861C16.5178 52.7992 16.2868 52.4577 16.1294 52.0813C15.9719 51.7049 15.8911 51.3012 15.8916 50.8935V40.7848C15.8911 40.3771 15.9719 39.9734 16.1294 39.597C16.2868 39.2207 16.5178 38.8791 16.8088 38.5922C17.0955 38.3134 17.4315 38.0897 17.7998 37.9323C18.1797 37.7684 18.5897 37.6852 19.0038 37.6878C19.4205 37.6857 19.8331 37.7689 20.2161 37.9323C20.9648 38.2416 21.5599 38.8335 21.8711 39.5784C22.0348 39.9596 22.1184 40.3702 22.1168 40.7848V50.8935C22.1184 51.3081 22.0348 51.7187 21.8711 52.0999C21.5599 52.8448 20.9648 53.4367 20.2161 53.7461C19.8331 53.9095 19.4205 53.9927 19.0038 53.9905ZM18.9962 39.8237C18.8696 39.8222 18.744 39.8467 18.6273 39.8957C18.5106 39.9446 18.4053 40.017 18.318 40.1082C18.2279 40.1965 18.1567 40.3019 18.1084 40.4181C18.0602 40.5343 18.0359 40.6591 18.0371 40.7848V50.8935C18.0359 51.0193 18.0602 51.144 18.1084 51.2602C18.1567 51.3765 18.2279 51.4819 18.318 51.5701C18.4052 51.6615 18.5105 51.734 18.6272 51.7831C18.7439 51.8322 18.8695 51.8568 18.9962 51.8555C19.1239 51.8565 19.2504 51.8318 19.3681 51.7827C19.4859 51.7337 19.5924 51.6613 19.6812 51.5701C19.7734 51.4831 19.8467 51.3781 19.8965 51.2617C19.9462 51.1453 19.9714 51.02 19.9704 50.8935V40.7848C19.9714 40.6583 19.9462 40.533 19.8965 40.4166C19.8467 40.3002 19.7734 40.1952 19.6812 40.1082C19.5923 40.0171 19.4858 39.9449 19.368 39.896C19.2503 39.8471 19.1238 39.8225 18.9962 39.8237Z" fill="white"/>
<path d="M30.1899 37.8666V50.8929C30.1904 51.3003 30.1098 51.7039 29.9528 52.0802C29.7959 52.4565 29.5655 52.7982 29.2752 53.0855C28.9894 53.3642 28.6543 53.588 28.2867 53.7454C27.9077 53.9093 27.4985 53.9925 27.0853 53.9899C26.6697 53.9921 26.2581 53.9089 25.8763 53.7454C25.131 53.434 24.5393 52.8424 24.2297 52.0993C24.0643 51.7183 23.9788 51.3078 23.9782 50.8929V37.8666C23.9747 37.8422 23.9769 37.8173 23.9847 37.794C23.9926 37.7706 24.0057 37.7494 24.0232 37.732C24.0407 37.7146 24.062 37.7015 24.0855 37.6937C24.109 37.6859 24.1339 37.6837 24.1584 37.6872H25.9442C25.9687 37.6837 25.9937 37.6859 26.0172 37.6937C26.0406 37.7015 26.0619 37.7146 26.0794 37.732C26.0969 37.7494 26.1101 37.7706 26.1179 37.794C26.1257 37.8173 26.128 37.8422 26.1245 37.8666V50.8929C26.1277 51.147 26.2306 51.3898 26.4112 51.5695C26.5918 51.7492 26.8358 51.8516 27.0912 51.8548C27.2168 51.8563 27.3413 51.8316 27.4567 51.7825C27.5722 51.7334 27.6762 51.6608 27.7619 51.5695C27.8514 51.481 27.9222 51.3755 27.97 51.2593C28.0178 51.143 28.0417 51.0184 28.0402 50.8929V37.8666C28.0366 37.8422 28.0387 37.8174 28.0464 37.794C28.0541 37.7707 28.0672 37.7494 28.0847 37.732C28.1021 37.7146 28.1234 37.7014 28.1468 37.6937C28.1703 37.6859 28.1952 37.6837 28.2197 37.6872H30.0147C30.0388 37.6844 30.0633 37.6871 30.0862 37.6952C30.1091 37.7033 30.1298 37.7165 30.1467 37.7339C30.1637 37.7512 30.1764 37.7722 30.1839 37.7952C30.1914 37.8182 30.1934 37.8426 30.1899 37.8666Z" fill="white"/>
<path d="M32.2202 53.9898C32.1958 53.9934 32.1708 53.9911 32.1474 53.9834C32.1239 53.9756 32.1026 53.9625 32.0852 53.945C32.0678 53.9276 32.0547 53.9063 32.047 53.883C32.0393 53.8596 32.0372 53.8348 32.0408 53.8105V37.8665C32.0373 37.8422 32.0395 37.8173 32.0474 37.794C32.0552 37.7706 32.0684 37.7494 32.0859 37.732C32.1033 37.7146 32.1247 37.7015 32.1481 37.6937C32.1716 37.6859 32.1966 37.6837 32.2211 37.6871H35.1555C35.5722 37.685 35.9848 37.7682 36.3678 37.9316C37.1161 38.2415 37.711 38.8332 38.0228 39.5777C38.1865 39.959 38.2701 40.3695 38.2685 40.7842V46.0996C38.2709 46.5117 38.187 46.9198 38.022 47.2977C37.8634 47.6626 37.6373 47.9946 37.3555 48.2764C37.0691 48.5575 36.7313 48.7815 36.3603 48.9363C35.9754 49.0993 35.5612 49.1825 35.1429 49.1808H34.3699C34.3454 49.1773 34.3204 49.1796 34.2969 49.1874C34.2734 49.1952 34.252 49.2083 34.2345 49.2256C34.2169 49.243 34.2037 49.2642 34.1958 49.2876C34.1878 49.3109 34.1854 49.3358 34.1888 49.3602V53.813C34.1924 53.8372 34.1903 53.862 34.1827 53.8852C34.175 53.9085 34.162 53.9297 34.1446 53.9471C34.1273 53.9646 34.1061 53.9777 34.0828 53.9856C34.0595 53.9934 34.0346 53.9957 34.0102 53.9923L32.2202 53.9898ZM35.1454 47.0449C35.274 47.0481 35.4018 47.0252 35.5212 46.9776C35.6406 46.93 35.7489 46.8586 35.8396 46.7679C35.9299 46.6818 36.0015 46.5781 36.0498 46.4633C36.0981 46.3484 36.1222 46.2249 36.1205 46.1005V40.7842C36.1234 40.657 36.0999 40.5307 36.0516 40.413C36.0033 40.2953 35.9311 40.1888 35.8396 40.1C35.7489 40.0093 35.6406 39.9379 35.5212 39.8903C35.4018 39.8427 35.274 39.8198 35.1454 39.823H34.3691C34.3445 39.8193 34.3195 39.8213 34.2958 39.8289C34.2722 39.8365 34.2507 39.8495 34.233 39.8668C34.2154 39.8842 34.202 39.9054 34.194 39.9288C34.1861 39.9522 34.1837 39.9771 34.1871 40.0016V46.8655C34.1837 46.89 34.1861 46.915 34.1941 46.9384C34.2021 46.9618 34.2154 46.9831 34.2331 47.0005C34.2507 47.0179 34.2722 47.0309 34.2958 47.0387C34.3194 47.0464 34.3445 47.0485 34.3691 47.0449H35.1454Z" fill="white"/>
</g>
<defs>
<clipPath id="clip0_2_531">
<rect width="46" height="54" fill="white"/>
</clipPath>
</defs>
</svg>
