<svg aria-hidden="true" style="width: 0px; height: 0px; overflow: hidden; position: absolute;" xmlns="http://www.w3.org/2000/svg">
    <symbol id="burger" viewBox="0 0 35 35">
      <path d="M35,9.8H0V7.7h35V9.8z M35,27.3H0v-2.2h35V27.3z M35,18.6H0v-2.2h35V18.6z"/>
    </symbol>
    <symbol id="menu_arrow" viewBox="0 0 16 16">
      <path d="M8 11L4 6H12L8 11Z"/>
    </symbol>
    <symbol id="close" viewBox="0 0 22 22">
      <path d="M21,22c-0.3,0-0.5-0.1-0.7-0.3l-20-20c-0.4-0.4-0.4-1,0-1.4s1-0.4,1.4,0l20,20c0.4,0.4,0.4,1,0,1.4C21.5,21.9,21.3,22,21,22z"/>
      <path d="M1,22c-0.3,0-0.5-0.1-0.7-0.3c-0.4-0.4-0.4-1,0-1.4l20-20c0.4-0.4,1-0.4,1.4,0s0.4,1,0,1.4l-20,20C1.5,21.9,1.3,22,1,22z"/>
    </symbol>
    <symbol id="plus" viewBox="0 0 16 16">
      <path d="M8,16c-0.6,0-1-0.4-1-1V1c0-0.6,0.4-1,1-1s1,0.4,1,1v14C9,15.6,8.6,16,8,16z"/>
      <path d="M15,9H1C0.4,9,0,8.6,0,8s0.4-1,1-1h14c0.6,0,1,0.4,1,1S15.6,9,15,9z"/>
    </symbol>
    <symbol id="inst" viewBox="0 0 40 40">
      <path d="M20.0012 14.7922C17.134 14.7922 14.7941 17.132 14.7941 19.9992C14.7941 22.8664 17.134 25.2062 20.0012 25.2062C22.8683 25.2062 25.2082 22.8664 25.2082 19.9992C25.2082 17.132 22.8683 14.7922 20.0012 14.7922ZM35.6183 19.9992C35.6183 17.843 35.6379 15.7062 35.5168 13.5539C35.3957 11.0539 34.8254 8.83515 32.9973 7.00702C31.1652 5.17499 28.9504 4.60858 26.4504 4.48749C24.2941 4.3664 22.1574 4.38593 20.0051 4.38593C17.8488 4.38593 15.7121 4.3664 13.5598 4.48749C11.0598 4.60858 8.84101 5.1789 7.01288 7.00702C5.18085 8.83905 4.61444 11.0539 4.49335 13.5539C4.37226 15.7101 4.39179 17.8469 4.39179 19.9992C4.39179 22.1516 4.37226 24.2922 4.49335 26.4445C4.61444 28.9445 5.18476 31.1633 7.01288 32.9914C8.84491 34.8234 11.0598 35.3898 13.5598 35.5109C15.716 35.632 17.8527 35.6125 20.0051 35.6125C22.1613 35.6125 24.298 35.632 26.4504 35.5109C28.9504 35.3898 31.1691 34.8195 32.9973 32.9914C34.8293 31.1594 35.3957 28.9445 35.5168 26.4445C35.6418 24.2922 35.6183 22.1555 35.6183 19.9992ZM20.0012 28.0109C15.5676 28.0109 11.9894 24.4328 11.9894 19.9992C11.9894 15.5656 15.5676 11.9875 20.0012 11.9875C24.4348 11.9875 28.0129 15.5656 28.0129 19.9992C28.0129 24.4328 24.4348 28.0109 20.0012 28.0109ZM28.341 13.5305C27.3059 13.5305 26.4699 12.6945 26.4699 11.6594C26.4699 10.6242 27.3059 9.78827 28.341 9.78827C29.3762 9.78827 30.2121 10.6242 30.2121 11.6594C30.2124 11.9052 30.1642 12.1486 30.0703 12.3758C29.9764 12.6029 29.8386 12.8093 29.6648 12.9831C29.4909 13.1569 29.2846 13.2947 29.0574 13.3887C28.8303 13.4826 28.5868 13.5308 28.341 13.5305Z"/>
    </symbol>
    <symbol id="tg" viewBox="0 0 40 40">
      <path fill-rule="evenodd" clip-rule="evenodd" d="M32.9617 7.38328C33.3736 7.20993 33.8244 7.15014 34.2672 7.21014C34.71 7.27013 35.1287 7.44772 35.4796 7.72442C35.8304 8.00111 36.1008 8.3668 36.2624 8.78341C36.424 9.20003 36.4709 9.65234 36.3984 10.0933L32.6184 33.0216C32.2517 35.2333 29.8251 36.5016 27.7967 35.3999C26.1001 34.4783 23.5801 33.0583 21.3134 31.5766C20.1801 30.8349 16.7084 28.4599 17.1351 26.7699C17.5017 25.3249 23.3351 19.8949 26.6684 16.6666C27.9767 15.3983 27.3801 14.6666 25.8351 15.8333C21.9984 18.7299 15.8384 23.1349 13.8017 24.3749C12.0051 25.4683 11.0684 25.6549 9.94841 25.4683C7.90507 25.1283 6.01007 24.6016 4.46341 23.9599C2.37341 23.0933 2.47507 20.2199 4.46174 19.3833L32.9617 7.38328Z"/>
    </symbol>
    <symbol id="vk" viewBox="0 0 40 40">
      <path fill-rule="evenodd" clip-rule="evenodd" d="M39.0833 9.91398C39.36 9.00398 39.0833 8.33398 37.7583 8.33398H33.3833C32.27 8.33398 31.7567 8.91232 31.4783 9.55065C31.4783 9.55065 29.2533 14.8773 26.1017 18.3373C25.0817 19.3407 24.6183 19.659 24.0617 19.659C23.7833 19.659 23.365 19.3407 23.365 18.429V9.91398C23.365 8.82065 23.0583 8.33398 22.1317 8.33398H15.2517C14.5567 8.33398 14.1383 8.84065 14.1383 9.32232C14.1383 10.3573 15.715 10.5973 15.8767 13.5107V19.8407C15.8767 21.229 15.6217 21.4807 15.065 21.4807C13.5817 21.4807 9.97333 16.129 7.83167 10.0057C7.41667 8.81398 6.99667 8.33398 5.87833 8.33398H1.5C0.25 8.33398 0 8.91232 0 9.55065C0 10.6873 1.48333 16.334 6.90833 23.8023C10.525 28.9023 15.6167 31.6673 20.255 31.6673C23.0367 31.6673 23.38 31.054 23.38 29.9957V26.1407C23.38 24.9123 23.6433 24.6673 24.525 24.6673C25.175 24.6673 26.2867 24.9873 28.8833 27.4457C31.85 30.3607 32.3383 31.6673 34.0083 31.6673H38.3833C39.6333 31.6673 40.26 31.054 39.9 29.8407C39.5033 28.634 38.0867 26.8823 36.2083 24.804C35.1883 23.6207 33.6583 22.3457 33.1933 21.7073C32.545 20.889 32.73 20.524 33.1933 19.7957C33.1933 19.7957 38.5267 12.419 39.0817 9.91398"/>
    </symbol>
    <symbol id="file" viewBox="0 0 18 18">
      <path d="M9 1.5L9.08775 1.50525C9.25516 1.52499 9.41104 1.60056 9.53024 1.71976C9.64944 1.83896 9.72501 1.99484 9.74475 2.16225L9.75 2.25V5.25L9.75375 5.3625C9.78059 5.71963 9.93432 6.05537 10.1871 6.30902C10.44 6.56267 10.7752 6.7175 11.1322 6.7455L11.25 6.75H14.25L14.3378 6.75525C14.5052 6.77499 14.661 6.85056 14.7802 6.96976C14.8994 7.08896 14.975 7.24484 14.9948 7.41225L15 7.5V14.25C15 14.8239 14.7808 15.3761 14.387 15.7937C13.9933 16.2113 13.4549 16.4626 12.882 16.4963L12.75 16.5H5.25C4.67609 16.5 4.12386 16.2808 3.7063 15.887C3.28874 15.4933 3.03742 14.9549 3.00375 14.382L3 14.25V3.75C2.99997 3.17609 3.21924 2.62386 3.61296 2.2063C4.00668 1.78874 4.54508 1.53742 5.118 1.50375L5.25 1.5H9Z"/>
      <path d="M14.25 5.25002H11.25L11.2493 2.24927L14.25 5.25002Z"/>
    </symbol>
    <symbol id="calendar" viewBox="0 0 18 18">
      <path d="M5.52272 1.22692C5.52272 1.06417 5.45807 0.90809 5.34299 0.793011C5.22791 0.677932 5.07183 0.613281 4.90909 0.613281C4.74634 0.613281 4.59026 0.677932 4.47518 0.793011C4.3601 0.90809 4.29545 1.06417 4.29545 1.22692V2.51964C3.11727 2.61374 2.3449 2.84446 1.77709 3.4131C1.20845 3.98092 0.977722 4.7541 0.882812 5.93146H17.1172C17.0223 4.75328 16.7915 3.98092 16.2229 3.4131C15.6551 2.84446 14.8819 2.61374 13.7045 2.51883V1.22692C13.7045 1.06417 13.6399 0.90809 13.5248 0.793011C13.4097 0.677932 13.2537 0.613281 13.0909 0.613281C12.9282 0.613281 12.7721 0.677932 12.657 0.793011C12.5419 0.90809 12.4773 1.06417 12.4773 1.22692V2.46483C11.9332 2.45419 11.3228 2.45419 10.6364 2.45419H7.36363C6.67718 2.45419 6.06681 2.45419 5.52272 2.46483V1.22692Z"/>
      <path fill-rule="evenodd" clip-rule="evenodd" d="M0.818176 9.00009C0.818176 8.31363 0.818176 7.70327 0.828813 7.15918H17.1712C17.1818 7.70327 17.1818 8.31363 17.1818 9.00009V10.6365C17.1818 13.7218 17.1818 15.2649 16.2229 16.223C15.2648 17.1819 13.7217 17.1819 10.6364 17.1819H7.36363C4.27827 17.1819 2.73518 17.1819 1.77709 16.223C0.818176 15.2649 0.818176 13.7218 0.818176 10.6365V9.00009ZM13.0909 10.6365C13.3079 10.6365 13.516 10.5503 13.6694 10.3968C13.8229 10.2434 13.9091 10.0353 13.9091 9.81827C13.9091 9.60128 13.8229 9.39317 13.6694 9.23973C13.516 9.08629 13.3079 9.00009 13.0909 9.00009C12.8739 9.00009 12.6658 9.08629 12.5124 9.23973C12.3589 9.39317 12.2727 9.60128 12.2727 9.81827C12.2727 10.0353 12.3589 10.2434 12.5124 10.3968C12.6658 10.5503 12.8739 10.6365 13.0909 10.6365ZM13.0909 13.9092C13.3079 13.9092 13.516 13.823 13.6694 13.6695C13.8229 13.5161 13.9091 13.308 13.9091 13.091C13.9091 12.874 13.8229 12.6659 13.6694 12.5125C13.516 12.359 13.3079 12.2728 13.0909 12.2728C12.8739 12.2728 12.6658 12.359 12.5124 12.5125C12.3589 12.6659 12.2727 12.874 12.2727 13.091C12.2727 13.308 12.3589 13.5161 12.5124 13.6695C12.6658 13.823 12.8739 13.9092 13.0909 13.9092ZM9.81818 9.81827C9.81818 10.0353 9.73197 10.2434 9.57854 10.3968C9.4251 10.5503 9.21699 10.6365 8.99999 10.6365C8.783 10.6365 8.57489 10.5503 8.42145 10.3968C8.26801 10.2434 8.18181 10.0353 8.18181 9.81827C8.18181 9.60128 8.26801 9.39317 8.42145 9.23973C8.57489 9.08629 8.783 9.00009 8.99999 9.00009C9.21699 9.00009 9.4251 9.08629 9.57854 9.23973C9.73197 9.39317 9.81818 9.60128 9.81818 9.81827ZM9.81818 13.091C9.81818 13.308 9.73197 13.5161 9.57854 13.6695C9.4251 13.823 9.21699 13.9092 8.99999 13.9092C8.783 13.9092 8.57489 13.823 8.42145 13.6695C8.26801 13.5161 8.18181 13.308 8.18181 13.091C8.18181 12.874 8.26801 12.6659 8.42145 12.5125C8.57489 12.359 8.783 12.2728 8.99999 12.2728C9.21699 12.2728 9.4251 12.359 9.57854 12.5125C9.73197 12.6659 9.81818 12.874 9.81818 13.091ZM4.90909 10.6365C5.12608 10.6365 5.33419 10.5503 5.48763 10.3968C5.64107 10.2434 5.72727 10.0353 5.72727 9.81827C5.72727 9.60128 5.64107 9.39317 5.48763 9.23973C5.33419 9.08629 5.12608 9.00009 4.90909 9.00009C4.69209 9.00009 4.48398 9.08629 4.33054 9.23973C4.1771 9.39317 4.0909 9.60128 4.0909 9.81827C4.0909 10.0353 4.1771 10.2434 4.33054 10.3968C4.48398 10.5503 4.69209 10.6365 4.90909 10.6365ZM4.90909 13.9092C5.12608 13.9092 5.33419 13.823 5.48763 13.6695C5.64107 13.5161 5.72727 13.308 5.72727 13.091C5.72727 12.874 5.64107 12.6659 5.48763 12.5125C5.33419 12.359 5.12608 12.2728 4.90909 12.2728C4.69209 12.2728 4.48398 12.359 4.33054 12.5125C4.1771 12.6659 4.0909 12.874 4.0909 13.091C4.0909 13.308 4.1771 13.5161 4.33054 13.6695C4.48398 13.823 4.69209 13.9092 4.90909 13.9092Z"/>
    </symbol>
    <symbol id="slider_left" viewBox="0 0 40 40">
      <path d="M25,32.5c-0.2,0-0.5-0.1-0.7-0.3l-13-11.5C11.1,20.6,11,20.3,11,20c0-0.3,0.1-0.6,0.3-0.7l13-11.5c0.4-0.4,1-0.3,1.4,0.1c0.4,0.4,0.3,1-0.1,1.4L13.5,20l12.2,10.8c0.4,0.4,0.5,1,0.1,1.4C25.6,32.4,25.3,32.5,25,32.5z"/>
    </symbol>
    <symbol id="slider_right" viewBox="0 0 40 40">
      <path d="M14,32.5c-0.3,0-0.6-0.1-0.7-0.3c-0.4-0.4-0.3-1,0.1-1.4L25.5,20L13.3,9.2c-0.4-0.4-0.5-1-0.1-1.4c0.4-0.4,1-0.5,1.4-0.1l13,11.5c0.2,0.2,0.3,0.5,0.3,0.7c0,0.3-0.1,0.6-0.3,0.7l-13,11.5C14.5,32.4,14.2,32.5,14,32.5z"/>
    </symbol>
    <symbol id="play" viewBox="0 0 46 46">
      <path d="M23,46C10.3,46,0,35.7,0,23C0,10.3,10.3,0,23,0c12.7,0,23,10.3,23,23C46,35.7,35.7,46,23,46z M23,1C10.9,1,1,10.9,1,23s9.9,22,22,22s22-9.9,22-22S35.1,1,23,1z"/>
      <path d="M33.9,25.3c0.3-0.3,0.6-0.6,0.8-1c0.2-0.4,0.3-0.8,0.3-1.3s-0.1-0.9-0.3-1.3c-0.2-0.4-0.5-0.7-0.8-1c-4.4-3.5-9.3-6.3-14.5-8.2l-1-0.4c-1.8-0.7-3.7,0.6-4,2.6c-0.7,5.5-0.7,11,0,16.5c0.2,1.9,2.2,3.2,4,2.6l1-0.4C24.7,31.6,29.5,28.8,33.9,25.3z"/>
    </symbol>
    <symbol id="decor_1" viewBox="0 0 1853 1761">
      <path d="M60.0864 1700.05C103.099 1487.12 344.245 1430.46 569.539 1429.34C746.648 1428.46 1020.95 1193.85 805.029 955.61C661.643 797.402 633.544 750.07 866.141 798.082C1278.37 883.174 1327.8 645.268 1105.35 490.878C923.843 364.911 1159.99 280.124 1263.21 278.859C1500.48 275.952 1750.57 217.344 1792.48 60.9361" stroke-linecap="round"/>
    </symbol>
    <symbol id="decor_2" viewBox="0 0 3313 1155">
      <path d="M84 995.112C278.8 774.312 600.274 871.236 865.5 1022.61C1074 1141.61 1555 1052.11 1463 626.112C1401.91 343.219 1401 268.612 1641.5 482.612C2067.74 861.884 2287 616.112 2130.5 284.112C2002.81 13.2305 2337.48 73.7435 2459.5 142.216C2740 299.612 3073.3 400.312 3228.5 245.112" stroke-linecap="round"/>
    </symbol>
    <symbol id="decor_3" viewBox="0 0 2440 849">
      <path d="M60 115.92C203.714 278.815 440.882 207.309 636.552 95.6318C790.373 7.83959 1145.23 73.8682 1077.36 388.15C1032.28 596.854 1031.62 651.895 1209.05 494.017C1523.5 214.209 1685.26 395.527 1569.81 640.46C1475.6 840.303 1722.5 795.659 1812.53 745.144C2019.46 629.025 2265.36 554.734 2379.86 669.232" stroke-linecap="round"/>
    </symbol>
    <symbol id="decor_4" viewBox="0 0 3313 1155">
      <path d="M84 159.798C278.8 380.598 600.274 283.674 865.5 132.298C1074 13.298 1555 102.798 1463 528.798C1401.91 811.691 1401 886.298 1641.5 672.298C2067.74 293.026 2287 538.798 2130.5 870.798C2002.81 1141.68 2337.48 1081.17 2459.5 1012.69C2740 855.298 3073.3 754.598 3228.5 909.798" stroke-linecap="round"/>
    </symbol>
    <symbol id="decor_5" viewBox="0 0 1998 1592">
      <path d="M60.5582 1531.11C123.164 1323.09 368.531 1289.08 592.955 1308.9C769.379 1324.47 1064.29 1116.36 871.433 859.089C743.363 688.246 719.782 638.508 946.914 707.919C1349.46 830.937 1420.77 598.651 1213.62 424.264C1044.6 281.981 1287.6 219.497 1390.49 227.826C1627.01 246.973 1881.47 211.85 1937.73 60.0116" stroke-linecap="round"/>
    </symbol>
    <symbol id="decor_6" viewBox="0 0 2713 2163">
      <path d="M84.289 2078.44C169.149 1796.48 501.737 1750.38 805.938 1777.24C1045.08 1798.35 1444.82 1516.25 1183.41 1167.53C1009.81 935.961 977.849 868.542 1285.72 962.628C1831.36 1129.38 1928.02 814.518 1647.24 578.142C1418.14 385.281 1747.51 300.585 1886.98 311.875C2207.57 337.828 2552.48 290.22 2628.74 84.4071" stroke-linecap="round"/>
    </symbol>
    <symbol id="decor_7" viewBox="0 0 2440 849">
      <path d="M2379.85 732.173C2236.14 569.278 1998.97 640.784 1803.3 752.461C1649.48 840.253 1294.62 774.225 1362.5 459.943C1407.57 251.238 1408.24 196.198 1230.81 354.076C916.352 633.884 754.592 452.566 870.049 207.633C964.253 7.78982 717.353 52.4333 627.329 102.949C420.391 219.068 174.499 293.359 59.9999 178.86" stroke-linecap="round"/>
    </symbol>
    <symbol id="decor_8" viewBox="0 0 3313 1155">
      <path d="M3228.5 995.112C3033.7 774.312 2712.23 871.236 2447 1022.61C2238.5 1141.61 1757.5 1052.11 1849.5 626.112C1910.59 343.219 1911.5 268.612 1671 482.612C1244.76 861.884 1025.5 616.112 1182 284.112C1309.69 13.2305 975.025 73.7435 853 142.216C572.5 299.612 239.2 400.312 84 245.112" stroke-linecap="round"/>
    </symbol>
</svg>
