<svg aria-hidden="true" style="width: 0px; height: 0px; overflow: hidden; position: absolute;" xmlns="http://www.w3.org/2000/svg">
    <symbol id="burger" viewBox="0 0 35 35">
      <path d="M35,9.8H0V7.7h35V9.8z M35,27.3H0v-2.2h35V27.3z M35,18.6H0v-2.2h35V18.6z"/>
    </symbol>
    <symbol id="menu_arrow" viewBox="0 0 16 16">
      <path d="M8 11L4 6H12L8 11Z"/>
    </symbol>
    <symbol id="close" viewBox="0 0 22 22">
      <path d="M21,22c-0.3,0-0.5-0.1-0.7-0.3l-20-20c-0.4-0.4-0.4-1,0-1.4s1-0.4,1.4,0l20,20c0.4,0.4,0.4,1,0,1.4C21.5,21.9,21.3,22,21,22z"/>
      <path d="M1,22c-0.3,0-0.5-0.1-0.7-0.3c-0.4-0.4-0.4-1,0-1.4l20-20c0.4-0.4,1-0.4,1.4,0s0.4,1,0,1.4l-20,20C1.5,21.9,1.3,22,1,22z"/>
    </symbol>
    <symbol id="" viewBox="0 0 ">

    </symbol>
    <symbol id="" viewBox="0 0 ">

    </symbol>
    <symbol id="" viewBox="0 0 ">

    </symbol>
    <symbol id="" viewBox="0 0 ">

    </symbol>
    <symbol id="" viewBox="0 0 ">

    </symbol>
    <symbol id="" viewBox="0 0 ">

    </symbol>
    <symbol id="" viewBox="0 0 ">

    </symbol>
    <symbol id="" viewBox="0 0 ">

    </symbol>
</svg>
